<svg xmlns="http://www.w3.org/2000/svg" xmlns:xlink="http://www.w3.org/1999/xlink" contentStyleType="text/css" height="2022px" preserveAspectRatio="none" style="width:1985px;height:2022px;background:#FFFFFF;" version="1.1" viewBox="0 0 1985 2022" width="1985px" zoomAndPan="magnify"><title>&#1057;&#1082;&#1074;&#1086;&#1079;&#1085;&#1086;&#1081; &#1073;&#1080;&#1079;&#1085;&#1077;&#1089;-&#1087;&#1088;&#1086;&#1094;&#1077;&#1089;&#1089; &#1076;&#1086;&#1089;&#1090;&#1072;&#1074;&#1082;&#1080; &#1079;&#1072;&#1082;&#1072;&#1079;&#1072; (BPMN)</title><defs/><g><text fill="#000000" font-family="sans-serif" font-size="14" font-weight="bold" lengthAdjust="spacing" textLength="410.2109" x="786.3794" y="32.9951">&#1057;&#1082;&#1074;&#1086;&#1079;&#1085;&#1086;&#1081; &#1073;&#1080;&#1079;&#1085;&#1077;&#1089;-&#1087;&#1088;&#1086;&#1094;&#1077;&#1089;&#1089; &#1076;&#1086;&#1089;&#1090;&#1072;&#1074;&#1082;&#1080; &#1079;&#1072;&#1082;&#1072;&#1079;&#1072; (BPMN)</text><rect fill="#F0F0F0" height="20.9531" style="stroke:#F0F0F0;stroke-width:1.0;" width="1952.9697" x="15" y="50.042"/><rect fill="#FDF1F1" height="1960.4761" style="stroke:#FDF1F1;stroke-width:1.0;" width="328.6279" x="15" y="50.042"/><ellipse cx="142.208" cy="85.9951" fill="#222222" rx="10" ry="10" style="stroke:#222222;stroke-width:1.0;"/><rect fill="#EAF2FB" height="33.9688" rx="12.5" ry="12.5" style="stroke:#2C6FB5;stroke-width:0.5;" width="203.5039" x="40.4561" y="115.9951"/><text fill="#000000" font-family="sans-serif" font-size="12" lengthAdjust="spacing" textLength="183.5039" x="50.4561" y="137.1338">&#1044;&#1086;&#1073;&#1072;&#1074;&#1083;&#1103;&#1077;&#1090; &#1090;&#1086;&#1074;&#1072;&#1088;&#1099; &#1074; &#1082;&#1086;&#1088;&#1079;&#1080;&#1085;&#1091;</text><rect fill="#EAF2FB" height="33.9688" rx="12.5" ry="12.5" style="stroke:#2C6FB5;stroke-width:0.5;" width="231.0898" x="26.6631" y="169.9639"/><text fill="#000000" font-family="sans-serif" font-size="12" lengthAdjust="spacing" textLength="211.0898" x="36.6631" y="191.1025">&#1059;&#1082;&#1072;&#1079;&#1099;&#1074;&#1072;&#1077;&#1090; &#1072;&#1076;&#1088;&#1077;&#1089;/&#1075;&#1086;&#1088;&#1086;&#1076; &#1076;&#1086;&#1089;&#1090;&#1072;&#1074;&#1082;&#1080;</text><rect fill="#EAF2FB" height="33.9688" rx="12.5" ry="12.5" style="stroke:#2C6FB5;stroke-width:0.5;" width="184.9824" x="154.6455" y="471.7451"/><text fill="#000000" font-family="sans-serif" font-size="12" lengthAdjust="spacing" textLength="164.9824" x="164.6455" y="492.8838">&#1052;&#1077;&#1085;&#1103;&#1077;&#1090; &#1072;&#1076;&#1088;&#1077;&#1089; &#1080;&#1083;&#1080; &#1090;&#1086;&#1074;&#1072;&#1088;&#1099;</text><ellipse cx="247.1367" cy="536.7139" fill="none" rx="11" ry="11" style="stroke:#222222;stroke-width:1.0;"/><ellipse cx="247.1367" cy="536.7139" fill="#222222" rx="6" ry="6" style="stroke:#222222;stroke-width:1.0;"/><rect fill="#EAF2FB" height="33.9688" rx="12.5" ry="12.5" style="stroke:#2C6FB5;stroke-width:0.5;" width="200.6094" x="41.9033" y="567.7139"/><text fill="#000000" font-family="sans-serif" font-size="12" lengthAdjust="spacing" textLength="180.6094" x="51.9033" y="588.8525">&#1042;&#1099;&#1073;&#1080;&#1088;&#1072;&#1077;&#1090; &#1074;&#1072;&#1088;&#1080;&#1072;&#1085;&#1090; &#1076;&#1086;&#1089;&#1090;&#1072;&#1074;&#1082;&#1080;</text><rect fill="#EAF2FB" height="33.9688" rx="12.5" ry="12.5" style="stroke:#2C6FB5;stroke-width:0.5;" width="242.416" x="21" y="621.6826"/><text fill="#000000" font-family="sans-serif" font-size="12" lengthAdjust="spacing" textLength="222.416" x="31" y="642.8213">&#1055;&#1086;&#1076;&#1090;&#1074;&#1077;&#1088;&#1078;&#1076;&#1072;&#1077;&#1090; &#1080; &#1086;&#1087;&#1083;&#1072;&#1095;&#1080;&#1074;&#1072;&#1077;&#1090; &#1079;&#1072;&#1082;&#1072;&#1079;</text><rect fill="#EAF2FB" height="33.9688" rx="12.5" ry="12.5" style="stroke:#2C6FB5;stroke-width:0.5;" width="184.2852" x="50.0654" y="1716.9326"/><text fill="#000000" font-family="sans-serif" font-size="12" lengthAdjust="spacing" textLength="164.2852" x="60.0654" y="1738.0713">&#1042;&#1080;&#1076;&#1080;&#1090; &#1072;&#1082;&#1090;&#1091;&#1072;&#1083;&#1100;&#1085;&#1099;&#1081; &#1089;&#1090;&#1072;&#1090;&#1091;&#1089;</text><rect fill="#EAF2FB" height="33.9688" rx="12.5" ry="12.5" style="stroke:#2C6FB5;stroke-width:0.5;" width="232.1152" x="26.1504" y="1826.6118"/><text fill="#000000" font-family="sans-serif" font-size="12" lengthAdjust="spacing" textLength="212.1152" x="36.1504" y="1847.7505">&#1055;&#1086;&#1083;&#1091;&#1095;&#1072;&#1077;&#1090; &#1079;&#1072;&#1082;&#1072;&#1079; &#1074; &#1055;&#1042;&#1047; / &#1091; &#1082;&#1091;&#1088;&#1100;&#1077;&#1088;&#1072;</text><line style="stroke:#999999;stroke-width:1.5;" x1="15" x2="15" y1="50.042" y2="2010.5181"/><rect fill="#EAF2FB" height="1960.4761" style="stroke:#EAF2FB;stroke-width:1.0;" width="409.7148" x="343.6279" y="50.042"/><rect fill="#EAF2FB" height="47.9375" rx="12.5" ry="12.5" style="stroke:#2C6FB5;stroke-width:0.5;" width="173.2871" x="448.4834" y="223.9326"/><text fill="#000000" font-family="sans-serif" font-size="12" lengthAdjust="spacing" textLength="153.2871" x="458.4834" y="245.0713">&#1057;&#1075;&#1088;&#1091;&#1087;&#1087;&#1080;&#1088;&#1086;&#1074;&#1072;&#1090;&#1100; &#1087;&#1086;&#1079;&#1080;&#1094;&#1080;&#1080;</text><text fill="#000000" font-family="sans-serif" font-size="12" lengthAdjust="spacing" textLength="134.2383" x="458.4834" y="259.04">&#1087;&#1086; (&#1087;&#1088;&#1086;&#1076;&#1072;&#1074;&#1077;&#1094;, &#1089;&#1082;&#1083;&#1072;&#1076;)</text><rect fill="#EAF2FB" height="47.9375" rx="12.5" ry="12.5" style="stroke:#2C6FB5;stroke-width:0.5;" width="241.9238" x="414.165" y="291.8701"/><text fill="#000000" font-family="sans-serif" font-size="12" lengthAdjust="spacing" textLength="221.9238" x="424.165" y="313.0088">&#1047;&#1072;&#1087;&#1088;&#1086;&#1089;&#1080;&#1090;&#1100; &#1090;&#1072;&#1088;&#1080;&#1092;&#1099; &#1091; &#1087;&#1077;&#1088;&#1077;&#1074;&#1086;&#1079;&#1095;&#1080;&#1082;&#1086;&#1074;</text><text fill="#000000" font-family="sans-serif" font-size="12" lengthAdjust="spacing" textLength="198.6387" x="424.165" y="326.9775">(&#1087;&#1072;&#1088;&#1072;&#1083;&#1083;&#1077;&#1083;&#1100;&#1085;&#1086;, &#1090;&#1072;&#1081;&#1084;&#1072;&#1091;&#1090; 600 &#1084;&#1089;)</text><polygon fill="#FFF6E0" points="456.0081,359.8076,614.2458,359.8076,626.2458,371.8076,614.2458,383.8076,456.0081,383.8076,444.0081,371.8076,456.0081,359.8076" style="stroke:#C8902A;stroke-width:0.5;"/><text fill="#000000" font-family="sans-serif" font-size="11" lengthAdjust="spacing" textLength="158.2378" x="456.0081" y="375.6157">&#1045;&#1089;&#1090;&#1100; &#1076;&#1086;&#1089;&#1090;&#1091;&#1087;&#1085;&#1099;&#1077; &#1074;&#1072;&#1088;&#1080;&#1072;&#1085;&#1090;&#1099;?</text><text fill="#000000" font-family="sans-serif" font-size="11" lengthAdjust="spacing" textLength="14.3462" x="429.6619" y="369.2134">&#1076;&#1072;</text><text fill="#000000" font-family="sans-serif" font-size="11" lengthAdjust="spacing" textLength="20.3672" x="626.2458" y="369.2134">&#1085;&#1077;&#1090;</text><rect fill="#EAF2FB" height="47.9375" rx="12.5" ry="12.5" style="stroke:#2C6FB5;stroke-width:0.5;" width="161.1406" x="349.6279" y="403.8076"/><text fill="#000000" font-family="sans-serif" font-size="12" lengthAdjust="spacing" textLength="141.1406" x="359.6279" y="424.9463">&#1057;&#1092;&#1086;&#1088;&#1084;&#1080;&#1088;&#1086;&#1074;&#1072;&#1090;&#1100; &#1089;&#1087;&#1080;&#1089;&#1086;&#1082;</text><text fill="#000000" font-family="sans-serif" font-size="12" lengthAdjust="spacing" textLength="128.959" x="359.6279" y="438.915">&#1074;&#1072;&#1088;&#1080;&#1072;&#1085;&#1090;&#1086;&#1074; &#1076;&#1086;&#1089;&#1090;&#1072;&#1074;&#1082;&#1080;</text><rect fill="#EAF2FB" height="33.9688" rx="12.5" ry="12.5" style="stroke:#2C6FB5;stroke-width:0.5;" width="218.5742" x="530.7686" y="403.8076"/><text fill="#000000" font-family="sans-serif" font-size="12" lengthAdjust="spacing" textLength="198.5742" x="540.7686" y="424.9463">&#1042;&#1077;&#1088;&#1085;&#1091;&#1090;&#1100; NO_DELIVERY_OPTIONS</text><line style="stroke:#999999;stroke-width:1.5;" x1="343.6279" x2="343.6279" y1="50.042" y2="2010.5181"/><rect fill="#E8F5E9" height="1960.4761" style="stroke:#E8F5E9;stroke-width:1.0;" width="220.2773" x="753.3428" y="50.042"/><rect fill="#EAF2FB" height="33.9688" rx="12.5" ry="12.5" style="stroke:#2C6FB5;stroke-width:0.5;" width="129.5996" x="799.6816" y="675.6514"/><text fill="#000000" font-family="sans-serif" font-size="12" lengthAdjust="spacing" textLength="109.5996" x="809.6816" y="696.79">&#1055;&#1088;&#1086;&#1074;&#1086;&#1076;&#1080;&#1090; &#1086;&#1087;&#1083;&#1072;&#1090;&#1091;</text><rect fill="#EAF2FB" height="33.9688" rx="12.5" ry="12.5" style="stroke:#2C6FB5;stroke-width:0.5;" width="210.2773" x="759.3428" y="729.6201"/><text fill="#000000" font-family="sans-serif" font-size="12" lengthAdjust="spacing" textLength="190.2773" x="769.3428" y="750.7588">&#1055;&#1091;&#1073;&#1083;&#1080;&#1082;&#1091;&#1077;&#1090; &#1089;&#1086;&#1073;&#1099;&#1090;&#1080;&#1077; order.paid</text><line style="stroke:#999999;stroke-width:1.5;" x1="753.3428" x2="753.3428" y1="50.042" y2="2010.5181"/><rect fill="#EAF2FB" height="1960.4761" style="stroke:#EAF2FB;stroke-width:1.0;" width="477.4302" x="973.6201" y="50.042"/><rect fill="#EAF2FB" height="47.9375" rx="12.5" ry="12.5" style="stroke:#2C6FB5;stroke-width:0.5;" width="214.9648" x="1105.7275" y="783.5889"/><text fill="#000000" font-family="sans-serif" font-size="12" lengthAdjust="spacing" textLength="194.9648" x="1115.7275" y="804.7275">&#1055;&#1088;&#1080;&#1085;&#1103;&#1090;&#1100; &#1082;&#1086;&#1084;&#1072;&#1085;&#1076;&#1091; &#1086;&#1092;&#1086;&#1088;&#1084;&#1083;&#1077;&#1085;&#1080;&#1103;</text><text fill="#000000" font-family="sans-serif" font-size="12" lengthAdjust="spacing" textLength="114.627" x="1115.7275" y="818.6963">(Idempotency-Key)</text><rect fill="#EAF2FB" height="47.9375" rx="12.5" ry="12.5" style="stroke:#2C6FB5;stroke-width:0.5;" width="228.7402" x="1098.8398" y="851.5264"/><text fill="#000000" font-family="sans-serif" font-size="12" lengthAdjust="spacing" textLength="164.1797" x="1108.8398" y="872.665">&#1057;&#1087;&#1083;&#1080;&#1090; &#1079;&#1072;&#1082;&#1072;&#1079;&#1072; &#1085;&#1072; &#1086;&#1090;&#1075;&#1088;&#1091;&#1079;&#1082;&#1080;</text><text fill="#000000" font-family="sans-serif" font-size="12" lengthAdjust="spacing" textLength="208.7402" x="1108.8398" y="886.6338">(&#1087;&#1086; &#1087;&#1088;&#1086;&#1076;&#1072;&#1074;&#1094;&#1091;/&#1089;&#1082;&#1083;&#1072;&#1076;&#1091;/&#1075;&#1072;&#1073;&#1072;&#1088;&#1080;&#1090;&#1072;&#1084;)</text><rect fill="#EAF2FB" height="47.9375" rx="12.5" ry="12.5" style="stroke:#2C6FB5;stroke-width:0.5;" width="220.6309" x="1102.8945" y="919.4639"/><text fill="#000000" font-family="sans-serif" font-size="12" lengthAdjust="spacing" textLength="200.6309" x="1112.8945" y="940.6025">&#1057;&#1086;&#1093;&#1088;&#1072;&#1085;&#1080;&#1090;&#1100; &#1086;&#1090;&#1075;&#1088;&#1091;&#1079;&#1082;&#1080; = PENDING</text><text fill="#000000" font-family="sans-serif" font-size="12" lengthAdjust="spacing" textLength="124.7988" x="1112.8945" y="954.5713">(+ &#1079;&#1072;&#1087;&#1080;&#1089;&#1100; &#1074; Outbox)</text><rect fill="#555555" height="6" rx="2.5" ry="2.5" style="stroke:#555555;stroke-width:1.0;" width="467.1797" x="979.6201" y="987.4014"/><rect fill="#EAF2FB" height="47.9375" rx="12.5" ry="12.5" style="stroke:#2C6FB5;stroke-width:0.5;" width="205.5898" x="993.6201" y="1013.4014"/><text fill="#000000" font-family="sans-serif" font-size="12" lengthAdjust="spacing" textLength="185.5898" x="1003.6201" y="1034.54">&#1057;&#1086;&#1079;&#1076;&#1072;&#1090;&#1100; &#1079;&#1072;&#1082;&#1072;&#1079; &#1091; &#1087;&#1077;&#1088;&#1077;&#1074;&#1086;&#1079;&#1095;&#1080;&#1082;&#1072;</text><text fill="#000000" font-family="sans-serif" font-size="12" lengthAdjust="spacing" textLength="78.2871" x="1003.6201" y="1048.5088">&#1086;&#1090;&#1075;&#1088;&#1091;&#1079;&#1082;&#1080; #1</text><rect fill="#EAF2FB" height="47.9375" rx="12.5" ry="12.5" style="stroke:#2C6FB5;stroke-width:0.5;" width="205.5898" x="1227.21" y="1013.4014"/><text fill="#000000" font-family="sans-serif" font-size="12" lengthAdjust="spacing" textLength="185.5898" x="1237.21" y="1034.54">&#1057;&#1086;&#1079;&#1076;&#1072;&#1090;&#1100; &#1079;&#1072;&#1082;&#1072;&#1079; &#1091; &#1087;&#1077;&#1088;&#1077;&#1074;&#1086;&#1079;&#1095;&#1080;&#1082;&#1072;</text><text fill="#000000" font-family="sans-serif" font-size="12" lengthAdjust="spacing" textLength="78.2871" x="1237.21" y="1048.5088">&#1086;&#1090;&#1075;&#1088;&#1091;&#1079;&#1082;&#1080; #2</text><rect fill="#555555" height="6" rx="2.5" ry="2.5" style="stroke:#555555;stroke-width:1.0;" width="467.1797" x="979.6201" y="1081.3389"/><polygon fill="#FFF6E0" points="1146.1626,1107.3389,1280.2573,1107.3389,1292.2573,1119.3389,1280.2573,1131.3389,1146.1626,1131.3389,1134.1626,1119.3389,1146.1626,1107.3389" style="stroke:#C8902A;stroke-width:0.5;"/><text fill="#000000" font-family="sans-serif" font-size="11" lengthAdjust="spacing" textLength="134.0947" x="1146.1626" y="1123.147">&#1042;&#1089;&#1077; &#1086;&#1090;&#1075;&#1088;&#1091;&#1079;&#1082;&#1080; &#1089;&#1086;&#1079;&#1076;&#1072;&#1085;&#1099;?</text><text fill="#000000" font-family="sans-serif" font-size="11" lengthAdjust="spacing" textLength="14.3462" x="1119.8164" y="1116.7446">&#1076;&#1072;</text><text fill="#000000" font-family="sans-serif" font-size="11" lengthAdjust="spacing" textLength="92.5762" x="1292.2573" y="1116.7446">&#1095;&#1072;&#1089;&#1090;&#1080;&#1095;&#1085;&#1099;&#1081; &#1089;&#1073;&#1086;&#1081;</text><rect fill="#EAF2FB" height="47.9375" rx="12.5" ry="12.5" style="stroke:#2C6FB5;stroke-width:0.5;" width="169.6953" x="1008.438" y="1141.3389"/><text fill="#000000" font-family="sans-serif" font-size="12" lengthAdjust="spacing" textLength="131.0449" x="1018.438" y="1162.4775">&#1057;&#1090;&#1072;&#1090;&#1091;&#1089;&#1099; = CREATED,</text><text fill="#000000" font-family="sans-serif" font-size="12" lengthAdjust="spacing" textLength="149.6953" x="1018.438" y="1176.4463">&#1089;&#1086;&#1093;&#1088;&#1072;&#1085;&#1080;&#1090;&#1100; &#1090;&#1088;&#1077;&#1082;-&#1085;&#1086;&#1084;&#1077;&#1088;&#1072;</text><rect fill="#EAF2FB" height="33.9688" rx="12.5" ry="12.5" style="stroke:#2C6FB5;stroke-width:0.5;" width="211.8652" x="987.353" y="1223.2451"/><text fill="#000000" font-family="sans-serif" font-size="12" lengthAdjust="spacing" textLength="191.8652" x="997.353" y="1244.3838">&#1055;&#1091;&#1073;&#1083;&#1080;&#1082;&#1086;&#1074;&#1072;&#1090;&#1100; shipment.created</text><rect fill="#EAF2FB" height="33.9688" rx="12.5" ry="12.5" style="stroke:#2C6FB5;stroke-width:0.5;" width="227.832" x="1219.2183" y="1141.3389"/><text fill="#000000" font-family="sans-serif" font-size="12" lengthAdjust="spacing" textLength="207.832" x="1229.2183" y="1162.4775">&#1055;&#1088;&#1086;&#1073;&#1083;&#1077;&#1084;&#1085;&#1099;&#1077; = CREATION_FAILED</text><rect fill="#EAF2FB" height="33.9688" rx="12.5" ry="12.5" style="stroke:#2C6FB5;stroke-width:0.5;" width="181.0508" x="1242.6089" y="1209.2764"/><text fill="#000000" font-family="sans-serif" font-size="12" lengthAdjust="spacing" textLength="161.0508" x="1252.6089" y="1230.415">&#1055;&#1086;&#1089;&#1090;&#1072;&#1074;&#1080;&#1090;&#1100; Retry &#1089; backoff</text><rect fill="#EAF2FB" height="33.9688" rx="12.5" ry="12.5" style="stroke:#2C6FB5;stroke-width:0.5;" width="174.4297" x="1245.9194" y="1277.2139"/><text fill="#000000" font-family="sans-serif" font-size="12" lengthAdjust="spacing" textLength="154.4297" x="1255.9194" y="1298.3525">&#1069;&#1089;&#1082;&#1072;&#1083;&#1072;&#1094;&#1080;&#1103; &#1074; &#1087;&#1086;&#1076;&#1076;&#1077;&#1088;&#1078;&#1082;&#1091;</text><polygon fill="#FFF6E0" points="1213.21,1317.1826,1225.21,1329.1826,1213.21,1341.1826,1201.21,1329.1826,1213.21,1317.1826" style="stroke:#C8902A;stroke-width:0.5;"/><line style="stroke:#999999;stroke-width:1.5;" x1="973.6201" x2="973.6201" y1="50.042" y2="2010.5181"/><rect fill="#F3E5F5" height="1960.4761" style="stroke:#F3E5F5;stroke-width:1.0;" width="245.6914" x="1451.0503" y="50.042"/><rect fill="#EAF2FB" height="33.9688" rx="12.5" ry="12.5" style="stroke:#2C6FB5;stroke-width:0.5;" width="187.9941" x="1466.3989" y="1361.1826"/><text fill="#000000" font-family="sans-serif" font-size="12" lengthAdjust="spacing" textLength="167.9941" x="1476.3989" y="1382.3213">&#1057;&#1086;&#1073;&#1080;&#1088;&#1072;&#1077;&#1090; &#1080; &#1074;&#1077;&#1079;&#1105;&#1090; &#1087;&#1086;&#1089;&#1099;&#1083;&#1082;&#1091;</text><rect fill="#EAF2FB" height="33.9688" rx="12.5" ry="12.5" style="stroke:#2C6FB5;stroke-width:0.5;" width="206.6914" x="1457.0503" y="1459.1514"/><text fill="#000000" font-family="sans-serif" font-size="12" lengthAdjust="spacing" textLength="186.6914" x="1467.0503" y="1480.29">&#1054;&#1090;&#1087;&#1088;&#1072;&#1074;&#1083;&#1103;&#1077;&#1090; &#1074;&#1077;&#1073;&#1093;&#1091;&#1082; &#1086; &#1089;&#1090;&#1072;&#1090;&#1091;&#1089;&#1077;</text><polygon fill="#FFF6E0" points="1560.396,1415.1514,1572.396,1427.1514,1560.396,1439.1514,1548.396,1427.1514,1560.396,1415.1514" style="stroke:#C8902A;stroke-width:0.5;"/><polygon fill="#FFF6E0" points="1523.1152,1770.9014,1597.6768,1770.9014,1609.6768,1782.9014,1597.6768,1794.9014,1523.1152,1794.9014,1511.1152,1782.9014,1523.1152,1770.9014" style="stroke:#C8902A;stroke-width:0.5;"/><text fill="#000000" font-family="sans-serif" font-size="11" lengthAdjust="spacing" textLength="14.3462" x="1564.396" y="1805.1118">&#1076;&#1072;</text><text fill="#000000" font-family="sans-serif" font-size="11" lengthAdjust="spacing" textLength="74.5615" x="1523.1152" y="1786.7095">&#1044;&#1086;&#1089;&#1090;&#1072;&#1074;&#1083;&#1077;&#1085;&#1086;?</text><text fill="#000000" font-family="sans-serif" font-size="11" lengthAdjust="spacing" textLength="20.3672" x="1609.6768" y="1780.3071">&#1085;&#1077;&#1090;</text><line style="stroke:#999999;stroke-width:1.5;" x1="1451.0503" x2="1451.0503" y1="50.042" y2="2010.5181"/><rect fill="#EAF2FB" height="1960.4761" style="stroke:#EAF2FB;stroke-width:1.0;" width="269.3672" x="1696.7417" y="50.042"/><rect fill="#EAF2FB" height="47.9375" rx="12.5" ry="12.5" style="stroke:#2C6FB5;stroke-width:0.5;" width="201.1367" x="1731.8569" y="1513.1201"/><text fill="#000000" font-family="sans-serif" font-size="12" lengthAdjust="spacing" textLength="181.1367" x="1741.8569" y="1534.2588">&#1055;&#1088;&#1086;&#1074;&#1077;&#1088;&#1080;&#1090;&#1100; &#1087;&#1086;&#1076;&#1087;&#1080;&#1089;&#1100; + &#1076;&#1077;&#1076;&#1091;&#1087;</text><text fill="#000000" font-family="sans-serif" font-size="12" lengthAdjust="spacing" textLength="125.9297" x="1741.8569" y="1548.2275">&#1087;&#1086; external_event_id</text><rect fill="#EAF2FB" height="47.9375" rx="12.5" ry="12.5" style="stroke:#2C6FB5;stroke-width:0.5;" width="217.2793" x="1723.7856" y="1581.0576"/><text fill="#000000" font-family="sans-serif" font-size="12" lengthAdjust="spacing" textLength="197.2793" x="1733.7856" y="1602.1963">&#1057;&#1084;&#1072;&#1087;&#1080;&#1090;&#1100; &#1074;&#1086; &#1074;&#1085;&#1091;&#1090;&#1088;&#1077;&#1085;&#1085;&#1080;&#1081; &#1089;&#1090;&#1072;&#1090;&#1091;&#1089;</text><text fill="#000000" font-family="sans-serif" font-size="12" lengthAdjust="spacing" textLength="157.834" x="1733.7856" y="1616.165">&#1080; &#1074;&#1072;&#1083;&#1080;&#1076;&#1080;&#1088;&#1086;&#1074;&#1072;&#1090;&#1100; &#1087;&#1077;&#1088;&#1077;&#1093;&#1086;&#1076;</text><rect fill="#EAF2FB" height="47.9375" rx="12.5" ry="12.5" style="stroke:#2C6FB5;stroke-width:0.5;" width="259.3672" x="1702.7417" y="1648.9951"/><text fill="#000000" font-family="sans-serif" font-size="12" lengthAdjust="spacing" textLength="110.2266" x="1712.7417" y="1670.1338">&#1054;&#1073;&#1085;&#1086;&#1074;&#1080;&#1090;&#1100; &#1089;&#1090;&#1072;&#1090;&#1091;&#1089;,</text><text fill="#000000" font-family="sans-serif" font-size="12" lengthAdjust="spacing" textLength="239.3672" x="1712.7417" y="1684.1025">&#1087;&#1091;&#1073;&#1083;&#1080;&#1082;&#1086;&#1074;&#1072;&#1090;&#1100; shipment.status_changed</text><rect fill="#EAF2FB" height="33.9688" rx="12.5" ry="12.5" style="stroke:#2C6FB5;stroke-width:0.5;" width="209.6914" x="1727.5796" y="1880.5806"/><text fill="#000000" font-family="sans-serif" font-size="12" lengthAdjust="spacing" textLength="189.6914" x="1737.5796" y="1901.7192">&#1057;&#1090;&#1072;&#1090;&#1091;&#1089; &#1086;&#1090;&#1075;&#1088;&#1091;&#1079;&#1082;&#1080; = DELIVERED</text><rect fill="#EAF2FB" height="33.9688" rx="12.5" ry="12.5" style="stroke:#2C6FB5;stroke-width:0.5;" width="221.9785" x="1721.436" y="1934.5493"/><text fill="#000000" font-family="sans-serif" font-size="12" lengthAdjust="spacing" textLength="201.9785" x="1731.436" y="1955.688">&#1055;&#1091;&#1073;&#1083;&#1080;&#1082;&#1086;&#1074;&#1072;&#1090;&#1100; shipment.delivered</text><ellipse cx="1832.4253" cy="1999.5181" fill="none" rx="11" ry="11" style="stroke:#222222;stroke-width:1.0;"/><ellipse cx="1832.4253" cy="1999.5181" fill="#222222" rx="6" ry="6" style="stroke:#222222;stroke-width:1.0;"/><line style="stroke:#999999;stroke-width:1.5;" x1="1696.7417" x2="1696.7417" y1="50.042" y2="2010.5181"/><line style="stroke:#999999;stroke-width:1.5;" x1="1966.1089" x2="1966.1089" y1="50.042" y2="2010.5181"/><line style="stroke:#181818;stroke-width:1.0;" x1="142.208" x2="142.208" y1="95.9951" y2="115.9951"/><polygon fill="#181818" points="138.208,105.9951,142.208,115.9951,146.208,105.9951,142.208,109.9951" style="stroke:#181818;stroke-width:1.0;"/><line style="stroke:#181818;stroke-width:1.0;" x1="142.208" x2="142.208" y1="149.9639" y2="169.9639"/><polygon fill="#181818" points="138.208,159.9639,142.208,169.9639,146.208,159.9639,142.208,163.9639" style="stroke:#181818;stroke-width:1.0;"/><line style="stroke:#181818;stroke-width:1.0;" x1="247.1367" x2="247.1367" y1="505.7139" y2="525.7139"/><polygon fill="#181818" points="243.1367,515.7139,247.1367,525.7139,251.1367,515.7139,247.1367,519.7139" style="stroke:#181818;stroke-width:1.0;"/><line style="stroke:#181818;stroke-width:1.0;" x1="142.208" x2="142.208" y1="601.6826" y2="621.6826"/><polygon fill="#181818" points="138.208,611.6826,142.208,621.6826,146.208,611.6826,142.208,615.6826" style="stroke:#181818;stroke-width:1.0;"/><line style="stroke:#181818;stroke-width:1.0;" x1="535.127" x2="535.127" y1="271.8701" y2="291.8701"/><polygon fill="#181818" points="531.127,281.8701,535.127,291.8701,539.127,281.8701,535.127,285.8701" style="stroke:#181818;stroke-width:1.0;"/><line style="stroke:#181818;stroke-width:1.0;" x1="444.0081" x2="430.1982" y1="371.8076" y2="371.8076"/><line style="stroke:#181818;stroke-width:1.0;" x1="430.1982" x2="430.1982" y1="371.8076" y2="403.8076"/><polygon fill="#181818" points="426.1982,393.8076,430.1982,403.8076,434.1982,393.8076,430.1982,397.8076" style="stroke:#181818;stroke-width:1.0;"/><line style="stroke:#181818;stroke-width:1.0;" x1="626.2458" x2="640.0557" y1="371.8076" y2="371.8076"/><line style="stroke:#181818;stroke-width:1.0;" x1="640.0557" x2="640.0557" y1="371.8076" y2="403.8076"/><polygon fill="#181818" points="636.0557,393.8076,640.0557,403.8076,644.0557,393.8076,640.0557,397.8076" style="stroke:#181818;stroke-width:1.0;"/><line style="stroke:#181818;stroke-width:1.0;" x1="430.1982" x2="430.1982" y1="451.7451" y2="552.7139"/><line style="stroke:#181818;stroke-width:1.0;" x1="430.1982" x2="142.208" y1="552.7139" y2="552.7139"/><line style="stroke:#181818;stroke-width:1.0;" x1="142.208" x2="142.208" y1="552.7139" y2="567.7139"/><polygon fill="#181818" points="138.208,557.7139,142.208,567.7139,146.208,557.7139,142.208,561.7139" style="stroke:#181818;stroke-width:1.0;"/><line style="stroke:#181818;stroke-width:1.0;" x1="535.127" x2="535.127" y1="339.8076" y2="359.8076"/><polygon fill="#181818" points="531.127,349.8076,535.127,359.8076,539.127,349.8076,535.127,353.8076" style="stroke:#181818;stroke-width:1.0;"/><line style="stroke:#181818;stroke-width:1.0;" x1="864.4814" x2="864.4814" y1="709.6201" y2="729.6201"/><polygon fill="#181818" points="860.4814,719.6201,864.4814,729.6201,868.4814,719.6201,864.4814,723.6201" style="stroke:#181818;stroke-width:1.0;"/><line style="stroke:#181818;stroke-width:1.0;" x1="1213.21" x2="1213.21" y1="831.5264" y2="851.5264"/><polygon fill="#181818" points="1209.21,841.5264,1213.21,851.5264,1217.21,841.5264,1213.21,845.5264" style="stroke:#181818;stroke-width:1.0;"/><line style="stroke:#181818;stroke-width:1.0;" x1="1213.21" x2="1213.21" y1="899.4639" y2="919.4639"/><polygon fill="#181818" points="1209.21,909.4639,1213.21,919.4639,1217.21,909.4639,1213.21,913.4639" style="stroke:#181818;stroke-width:1.0;"/><line style="stroke:#181818;stroke-width:1.0;" x1="1096.415" x2="1096.415" y1="993.4014" y2="1013.4014"/><polygon fill="#181818" points="1092.415,1003.4014,1096.415,1013.4014,1100.415,1003.4014,1096.415,1007.4014" style="stroke:#181818;stroke-width:1.0;"/><line style="stroke:#181818;stroke-width:1.0;" x1="1330.0049" x2="1330.0049" y1="993.4014" y2="1013.4014"/><polygon fill="#181818" points="1326.0049,1003.4014,1330.0049,1013.4014,1334.0049,1003.4014,1330.0049,1007.4014" style="stroke:#181818;stroke-width:1.0;"/><line style="stroke:#181818;stroke-width:1.0;" x1="1096.415" x2="1096.415" y1="1061.3389" y2="1081.3389"/><polygon fill="#181818" points="1092.415,1071.3389,1096.415,1081.3389,1100.415,1071.3389,1096.415,1075.3389" style="stroke:#181818;stroke-width:1.0;"/><line style="stroke:#181818;stroke-width:1.0;" x1="1330.0049" x2="1330.0049" y1="1061.3389" y2="1081.3389"/><polygon fill="#181818" points="1326.0049,1071.3389,1330.0049,1081.3389,1334.0049,1071.3389,1330.0049,1075.3389" style="stroke:#181818;stroke-width:1.0;"/><line style="stroke:#181818;stroke-width:1.0;" x1="1213.21" x2="1213.21" y1="967.4014" y2="987.4014"/><polygon fill="#181818" points="1209.21,977.4014,1213.21,987.4014,1217.21,977.4014,1213.21,981.4014" style="stroke:#181818;stroke-width:1.0;"/><line style="stroke:#181818;stroke-width:1.0;" x1="1093.2856" x2="1093.2856" y1="1189.2764" y2="1223.2451"/><polygon fill="#181818" points="1089.2856,1213.2451,1093.2856,1223.2451,1097.2856,1213.2451,1093.2856,1217.2451" style="stroke:#181818;stroke-width:1.0;"/><line style="stroke:#181818;stroke-width:1.0;" x1="1333.1343" x2="1333.1343" y1="1175.3076" y2="1209.2764"/><polygon fill="#181818" points="1329.1343,1199.2764,1333.1343,1209.2764,1337.1343,1199.2764,1333.1343,1203.2764" style="stroke:#181818;stroke-width:1.0;"/><line style="stroke:#181818;stroke-width:1.0;" x1="1333.1343" x2="1333.1343" y1="1243.2451" y2="1277.2139"/><polygon fill="#181818" points="1329.1343,1267.2139,1333.1343,1277.2139,1337.1343,1267.2139,1333.1343,1271.2139" style="stroke:#181818;stroke-width:1.0;"/><line style="stroke:#181818;stroke-width:1.0;" x1="1134.1626" x2="1093.2856" y1="1119.3389" y2="1119.3389"/><line style="stroke:#181818;stroke-width:1.0;" x1="1093.2856" x2="1093.2856" y1="1119.3389" y2="1141.3389"/><polygon fill="#181818" points="1089.2856,1131.3389,1093.2856,1141.3389,1097.2856,1131.3389,1093.2856,1135.3389" style="stroke:#181818;stroke-width:1.0;"/><line style="stroke:#181818;stroke-width:1.0;" x1="1292.2573" x2="1333.1343" y1="1119.3389" y2="1119.3389"/><line style="stroke:#181818;stroke-width:1.0;" x1="1333.1343" x2="1333.1343" y1="1119.3389" y2="1141.3389"/><polygon fill="#181818" points="1329.1343,1131.3389,1333.1343,1141.3389,1337.1343,1131.3389,1333.1343,1135.3389" style="stroke:#181818;stroke-width:1.0;"/><line style="stroke:#181818;stroke-width:1.0;" x1="1093.2856" x2="1093.2856" y1="1257.2139" y2="1329.1826"/><line style="stroke:#181818;stroke-width:1.0;" x1="1093.2856" x2="1201.21" y1="1329.1826" y2="1329.1826"/><polygon fill="#181818" points="1191.21,1325.1826,1201.21,1329.1826,1191.21,1333.1826,1195.21,1329.1826" style="stroke:#181818;stroke-width:1.0;"/><line style="stroke:#181818;stroke-width:1.0;" x1="1333.1343" x2="1333.1343" y1="1311.1826" y2="1329.1826"/><line style="stroke:#181818;stroke-width:1.0;" x1="1333.1343" x2="1225.21" y1="1329.1826" y2="1329.1826"/><polygon fill="#181818" points="1235.21,1325.1826,1225.21,1329.1826,1235.21,1333.1826,1231.21,1329.1826" style="stroke:#181818;stroke-width:1.0;"/><line style="stroke:#181818;stroke-width:1.0;" x1="1213.21" x2="1213.21" y1="1087.3389" y2="1107.3389"/><polygon fill="#181818" points="1209.21,1097.3389,1213.21,1107.3389,1217.21,1097.3389,1213.21,1101.3389" style="stroke:#181818;stroke-width:1.0;"/><line style="stroke:#181818;stroke-width:1.0;" x1="1560.396" x2="1560.396" y1="1439.1514" y2="1459.1514"/><polygon fill="#181818" points="1556.396,1449.1514,1560.396,1459.1514,1564.396,1449.1514,1560.396,1453.1514" style="stroke:#181818;stroke-width:1.0;"/><line style="stroke:#181818;stroke-width:1.0;" x1="1609.6768" x2="1677.7417" y1="1782.9014" y2="1782.9014"/><polygon fill="#181818" points="1673.7417,1615.0264,1677.7417,1605.0264,1681.7417,1615.0264,1677.7417,1611.0264" style="stroke:#181818;stroke-width:1.0;"/><line style="stroke:#181818;stroke-width:1.0;" x1="1677.7417" x2="1677.7417" y1="1427.1514" y2="1782.9014"/><line style="stroke:#181818;stroke-width:1.0;" x1="1677.7417" x2="1572.396" y1="1427.1514" y2="1427.1514"/><polygon fill="#181818" points="1582.396,1423.1514,1572.396,1427.1514,1582.396,1431.1514,1578.396,1427.1514" style="stroke:#181818;stroke-width:1.0;"/><line style="stroke:#181818;stroke-width:1.0;" x1="1560.396" x2="1560.396" y1="1395.1514" y2="1415.1514"/><polygon fill="#181818" points="1556.396,1405.1514,1560.396,1415.1514,1564.396,1405.1514,1560.396,1409.1514" style="stroke:#181818;stroke-width:1.0;"/><line style="stroke:#181818;stroke-width:1.0;" x1="1832.4253" x2="1832.4253" y1="1561.0576" y2="1581.0576"/><polygon fill="#181818" points="1828.4253,1571.0576,1832.4253,1581.0576,1836.4253,1571.0576,1832.4253,1575.0576" style="stroke:#181818;stroke-width:1.0;"/><line style="stroke:#181818;stroke-width:1.0;" x1="1832.4253" x2="1832.4253" y1="1628.9951" y2="1648.9951"/><polygon fill="#181818" points="1828.4253,1638.9951,1832.4253,1648.9951,1836.4253,1638.9951,1832.4253,1642.9951" style="stroke:#181818;stroke-width:1.0;"/><line style="stroke:#181818;stroke-width:1.0;" x1="1832.4253" x2="1832.4253" y1="1914.5493" y2="1934.5493"/><polygon fill="#181818" points="1828.4253,1924.5493,1832.4253,1934.5493,1836.4253,1924.5493,1832.4253,1928.5493" style="stroke:#181818;stroke-width:1.0;"/><line style="stroke:#181818;stroke-width:1.0;" x1="1832.4253" x2="1832.4253" y1="1968.5181" y2="1988.5181"/><polygon fill="#181818" points="1828.4253,1978.5181,1832.4253,1988.5181,1836.4253,1978.5181,1832.4253,1982.5181" style="stroke:#181818;stroke-width:1.0;"/><line style="stroke:#181818;stroke-width:1.0;" x1="142.208" x2="142.208" y1="203.9326" y2="208.9326"/><line style="stroke:#181818;stroke-width:1.0;" x1="142.208" x2="535.127" y1="208.9326" y2="208.9326"/><line style="stroke:#181818;stroke-width:1.0;" x1="535.127" x2="535.127" y1="208.9326" y2="223.9326"/><polygon fill="#181818" points="531.127,213.9326,535.127,223.9326,539.127,213.9326,535.127,217.9326" style="stroke:#181818;stroke-width:1.0;"/><line style="stroke:#181818;stroke-width:1.0;" x1="640.0557" x2="640.0557" y1="437.7764" y2="455.2764"/><line style="stroke:#181818;stroke-width:1.0;" x1="640.0557" x2="247.1367" y1="455.2764" y2="455.2764"/><line style="stroke:#181818;stroke-width:1.0;" x1="247.1367" x2="247.1367" y1="455.2764" y2="471.7451"/><polygon fill="#181818" points="243.1367,461.7451,247.1367,471.7451,251.1367,461.7451,247.1367,465.7451" style="stroke:#181818;stroke-width:1.0;"/><line style="stroke:#181818;stroke-width:1.0;" x1="142.208" x2="142.208" y1="655.6514" y2="660.6514"/><line style="stroke:#181818;stroke-width:1.0;" x1="142.208" x2="864.4814" y1="660.6514" y2="660.6514"/><line style="stroke:#181818;stroke-width:1.0;" x1="864.4814" x2="864.4814" y1="660.6514" y2="675.6514"/><polygon fill="#181818" points="860.4814,665.6514,864.4814,675.6514,868.4814,665.6514,864.4814,669.6514" style="stroke:#181818;stroke-width:1.0;"/><line style="stroke:#181818;stroke-width:1.0;" x1="864.4814" x2="864.4814" y1="763.5889" y2="768.5889"/><line style="stroke:#181818;stroke-width:1.0;" x1="864.4814" x2="1213.21" y1="768.5889" y2="768.5889"/><line style="stroke:#181818;stroke-width:1.0;" x1="1213.21" x2="1213.21" y1="768.5889" y2="783.5889"/><polygon fill="#181818" points="1209.21,773.5889,1213.21,783.5889,1217.21,773.5889,1213.21,777.5889" style="stroke:#181818;stroke-width:1.0;"/><line style="stroke:#181818;stroke-width:1.0;" x1="1213.21" x2="1213.21" y1="1341.1826" y2="1346.1826"/><line style="stroke:#181818;stroke-width:1.0;" x1="1213.21" x2="1560.396" y1="1346.1826" y2="1346.1826"/><line style="stroke:#181818;stroke-width:1.0;" x1="1560.396" x2="1560.396" y1="1346.1826" y2="1361.1826"/><polygon fill="#181818" points="1556.396,1351.1826,1560.396,1361.1826,1564.396,1351.1826,1560.396,1355.1826" style="stroke:#181818;stroke-width:1.0;"/><line style="stroke:#181818;stroke-width:1.0;" x1="1560.396" x2="1560.396" y1="1493.1201" y2="1498.1201"/><line style="stroke:#181818;stroke-width:1.0;" x1="1560.396" x2="1832.4253" y1="1498.1201" y2="1498.1201"/><line style="stroke:#181818;stroke-width:1.0;" x1="1832.4253" x2="1832.4253" y1="1498.1201" y2="1513.1201"/><polygon fill="#181818" points="1828.4253,1503.1201,1832.4253,1513.1201,1836.4253,1503.1201,1832.4253,1507.1201" style="stroke:#181818;stroke-width:1.0;"/><line style="stroke:#181818;stroke-width:1.0;" x1="1832.4253" x2="1832.4253" y1="1696.9326" y2="1701.9326"/><line style="stroke:#181818;stroke-width:1.0;" x1="1832.4253" x2="142.208" y1="1701.9326" y2="1701.9326"/><line style="stroke:#181818;stroke-width:1.0;" x1="142.208" x2="142.208" y1="1701.9326" y2="1716.9326"/><polygon fill="#181818" points="138.208,1706.9326,142.208,1716.9326,146.208,1706.9326,142.208,1710.9326" style="stroke:#181818;stroke-width:1.0;"/><line style="stroke:#181818;stroke-width:1.0;" x1="142.208" x2="142.208" y1="1750.9014" y2="1755.9014"/><line style="stroke:#181818;stroke-width:1.0;" x1="142.208" x2="1560.396" y1="1755.9014" y2="1755.9014"/><line style="stroke:#181818;stroke-width:1.0;" x1="1560.396" x2="1560.396" y1="1755.9014" y2="1770.9014"/><polygon fill="#181818" points="1556.396,1760.9014,1560.396,1770.9014,1564.396,1760.9014,1560.396,1764.9014" style="stroke:#181818;stroke-width:1.0;"/><line style="stroke:#181818;stroke-width:1.0;" x1="1560.396" x2="1560.396" y1="1794.9014" y2="1811.6118"/><line style="stroke:#181818;stroke-width:1.0;" x1="1560.396" x2="142.208" y1="1811.6118" y2="1811.6118"/><line style="stroke:#181818;stroke-width:1.0;" x1="142.208" x2="142.208" y1="1811.6118" y2="1826.6118"/><polygon fill="#181818" points="138.208,1816.6118,142.208,1826.6118,146.208,1816.6118,142.208,1820.6118" style="stroke:#181818;stroke-width:1.0;"/><line style="stroke:#181818;stroke-width:1.0;" x1="142.208" x2="142.208" y1="1860.5806" y2="1865.5806"/><line style="stroke:#181818;stroke-width:1.0;" x1="142.208" x2="1832.4253" y1="1865.5806" y2="1865.5806"/><line style="stroke:#181818;stroke-width:1.0;" x1="1832.4253" x2="1832.4253" y1="1865.5806" y2="1880.5806"/><polygon fill="#181818" points="1828.4253,1870.5806,1832.4253,1880.5806,1836.4253,1870.5806,1832.4253,1874.5806" style="stroke:#181818;stroke-width:1.0;"/><text fill="#000000" font-family="sans-serif" font-size="18" lengthAdjust="spacing" textLength="112.5439" x="123.042" y="66.75">&#1055;&#1086;&#1082;&#1091;&#1087;&#1072;&#1090;&#1077;&#1083;&#1100;</text><text fill="#000000" font-family="sans-serif" font-size="18" lengthAdjust="spacing" textLength="115.2158" x="490.8774" y="66.75">DOS: &#1056;&#1072;&#1089;&#1095;&#1105;&#1090;</text><text fill="#000000" font-family="sans-serif" font-size="18" lengthAdjust="spacing" textLength="151.1543" x="787.9043" y="66.75">payment-service</text><text fill="#000000" font-family="sans-serif" font-size="18" lengthAdjust="spacing" textLength="173.9355" x="1125.3674" y="66.75">DOS: &#1054;&#1092;&#1086;&#1088;&#1084;&#1083;&#1077;&#1085;&#1080;&#1077;</text><text fill="#000000" font-family="sans-serif" font-size="18" lengthAdjust="spacing" textLength="111.5068" x="1518.1426" y="66.75">&#1055;&#1077;&#1088;&#1077;&#1074;&#1086;&#1079;&#1095;&#1080;&#1082;</text><text fill="#000000" font-family="sans-serif" font-size="18" lengthAdjust="spacing" textLength="128.5313" x="1767.1597" y="66.75">DOS: &#1058;&#1088;&#1077;&#1082;&#1080;&#1085;&#1075;</text><!--SRC=[hLPTJnjN47tVNt4b7e8LlYjG04KLOBj29O08hTGdjC4Bh31hQxs18Fd1DWbKWWeLfSfB1QLzhhG6Rp3-uY_S-uzwPkuQ_5Le9Oo4TxrpPyxCd3EpByJhv_WOBuIONNwpE9ZnzfEMK7bPaLUo8Mza7VzlXRnJETbGXp9GUPKNieIRl2f87rOLMHOmz77XqxUGDUd3l0BZWhoJLHd8MtZqXoYA_0EtFduimxQ1uxwi2pvQ4JFhdhrhU_iYQfkRhhb3E1eYisVl94t7oeX-m3YGLNKyp020I7wby941ygmAGx8o9DGlYDeG0ExZeem8TRe5nY8YtmWS_1a_5t6u8k0ZmFCIeEPaMHMGrAcGLs8P0RqVtYneo9zRWudNWc-GmJ3mbRaEWQofOz6lOL98TG1dEOhAa2dJ23bxdcvvjeSkoSlEBXMvgdNgqk3_Qba_DJzY69bjsqcRLFftvlhsffjwxoJcKicKA_hY_6cno6oPYTIUxMoA3JEPiLgUDFius-aZDXCVYy_siaov2SiDhSRc9kApupsiG8kTb9EOxG5j8ZRoo85MxtEl9aV6Pbhp2FdLPZN9dnvMgrJwRWGZz6SOsRvuD3uQ7ytA2-8NMd_7D0p0sfEiaV5CrpEcY53e5NMYgav99e8uIs9GEV0814HdY7CtQ2YuD8qpV-bcgMFM39t1Lua8hFB3yZgaQAchqTE4IXS-6rrwEqKAz65mf7vLXImSNyfhH2MaTs1pBiHHK2VWBfEh31ALPTcWMzOW1sB_WJeSqDEYIcWY1FGBhZJtyYof4qhEPtrzH7BgWFm6h3mchpg2zmg5DVgvN3cU3rLTDABs07kGjpnO82mnCJA2AQFoY6Tl0D9lb3013dFdREeeLI1qKH41SmOFZh-D26_BSd086KGC8L00zP6hL-j87_Yf8ddg90pRFP5TZrfRK09yamGBsliPvwe7mebON5gBnXRcVuoj_BIsjBmwlxJuTXfcJ_26_FnEaofaoqFdCTXe4hNnXnncl5JQi9o4lV4aAG4HbIfoyY6nsZBjaUKKUohXfolExYlJWOzYi3HuwFlSrtkktayRpSTNyV7OP3PjxkzOZZUOiTnTUzqYB1TX2uXXPJhOz5RGChW0_2Al3qg4fKCDAgfZdlQ1O1KFfKqxqStyy_jELtdkmxuPatHsgab4NAnHxiZmWFP5no5rQlJF9woTTCgpdFNzmU-jVIR-9ICjjsLBwx1E_ng0ftLsGpLagZT4gvZKeJeOVj0IRg1gd-Q4tasuheLn6keJDwiU2gpJEtRKScmnEh_udT7_KgDX9fFfbLXwxxrBVO0hOoFbRci9iD1BJTtVm_zNjVeaYCweVQFJx5AOcwRjFAVZiMaYis2yMl9dg5JGRSbau82a_vvYBsWoeHh7gDFSIcncDHOTm4Cwsr5ONkA1h0poXgqnNd-Q7RKGiMLcPBRiD55wQDsrJCzAD2S2ilDPGsLSqMIwfN3q4d8R2TtbU2aGnshXx0hHOKYinMVc5sBHC7AB73NC5Sjpz-6GjtPgOqFR_SraybazXqHRNYntpBTIgDiAgUfXJdmJ6u-FqvpeQepU58tsEL6cKO6NAbebx9cAYdZirRNIA04ZEQSNGJxsiF7uP17rFi1x6AIWKzATaO4UYctY_LEtWfGghxCjHRkwVtixQQRNPFjB6bu1YKdU4R58SzO7pt8TCxbcxQ9HQpGdD5DheKpOpnMfy-55ZeHFy-As3IUvv1he5zfIz_xaEgfF14g7EKS5wsmJCgp5tG13V9nNU8NmtcVMrhTCPzDA_CVTSHQ2uyrHuVtew-KQCl41G-ZnCIBenegzBJj9k-vp2ntrX6n0TtRcVWqA9-Kr9VZqCgAVgq1orBKvcBuNIEQB6ERvWTEG_abJbSRZX6dJVg-H6IvcajcJyavOINlNSga3l6h_0G00]--></g></svg>