<svg xmlns="http://www.w3.org/2000/svg" xmlns:xlink="http://www.w3.org/1999/xlink" contentStyleType="text/css" height="1150px" preserveAspectRatio="none" style="width:1828px;height:1150px;background:#FFFFFF;" version="1.1" viewBox="0 0 1828 1150" width="1828px" zoomAndPan="magnify"><title>ERD &#8212; Delivery Orchestration Service (PostgreSQL)</title><defs/><g><text fill="#000000" font-family="sans-serif" font-size="14" font-weight="bold" lengthAdjust="spacing" textLength="407.9482" x="703.0586" y="22.9951">ERD &#8212; Delivery Orchestration Service (PostgreSQL)</text><!--class merchant--><g id="elem_merchant"><rect codeLine="19" fill="#EAF2FB" height="123.7813" id="merchant" rx="2.5" ry="2.5" style="stroke:#2C6FB5;stroke-width:0.5;" width="202.6748" x="352" y="60.2969"/><text fill="#000000" font-family="sans-serif" font-size="14" lengthAdjust="spacing" textLength="67.5186" x="419.5781" y="78.292">merchant</text><line style="stroke:#2C6FB5;stroke-width:0.5;" x1="353" x2="553.6748" y1="86.5938" y2="86.5938"/><ellipse cx="363" cy="100.2422" fill="#000000" rx="3" ry="3" style="stroke:#000000;stroke-width:1.0;"/><text fill="#000000" font-family="sans-serif" font-size="14" lengthAdjust="spacing" textLength="101.001" x="372" y="103.5889">id : UUID &#171;PK&#187;</text><line style="stroke:#2C6FB5;stroke-width:1.0;" x1="353" x2="553.6748" y1="110.8906" y2="110.8906"/><ellipse cx="363" cy="124.5391" fill="#000000" rx="3" ry="3" style="stroke:#000000;stroke-width:1.0;"/><text fill="#000000" font-family="sans-serif" font-size="14" lengthAdjust="spacing" textLength="144.4912" x="372" y="127.8857">name : varchar(255)</text><ellipse cx="363" cy="140.8359" fill="#000000" rx="3" ry="3" style="stroke:#000000;stroke-width:1.0;"/><text fill="#000000" font-family="sans-serif" font-size="14" lengthAdjust="spacing" textLength="158.375" x="372" y="144.1826">legal_inn : varchar(12)</text><ellipse cx="363" cy="157.1328" fill="#000000" rx="3" ry="3" style="stroke:#000000;stroke-width:1.0;"/><text fill="#000000" font-family="sans-serif" font-size="14" lengthAdjust="spacing" textLength="138.8994" x="372" y="160.4795">status : varchar(32)</text><ellipse cx="363" cy="173.4297" fill="#000000" rx="3" ry="3" style="stroke:#000000;stroke-width:1.0;"/><text fill="#000000" font-family="sans-serif" font-size="14" lengthAdjust="spacing" textLength="176.6748" x="372" y="176.7764">created_at : timestamptz</text></g><!--class warehouse--><g id="elem_warehouse"><rect codeLine="28" fill="#EAF2FB" height="156.375" id="warehouse" rx="2.5" ry="2.5" style="stroke:#2C6FB5;stroke-width:0.5;" width="205.3477" x="507" y="293.2969"/><text fill="#000000" font-family="sans-serif" font-size="14" lengthAdjust="spacing" textLength="76.6172" x="571.3652" y="311.292">warehouse</text><line style="stroke:#2C6FB5;stroke-width:0.5;" x1="508" x2="711.3477" y1="319.5938" y2="319.5938"/><ellipse cx="518" cy="333.2422" fill="#000000" rx="3" ry="3" style="stroke:#000000;stroke-width:1.0;"/><text fill="#000000" font-family="sans-serif" font-size="14" lengthAdjust="spacing" textLength="101.001" x="527" y="336.5889">id : UUID &#171;PK&#187;</text><line style="stroke:#2C6FB5;stroke-width:1.0;" x1="508" x2="711.3477" y1="343.8906" y2="343.8906"/><ellipse cx="518" cy="357.5391" fill="#000000" rx="3" ry="3" style="stroke:#000000;stroke-width:1.0;"/><text fill="#000000" font-family="sans-serif" font-size="14" lengthAdjust="spacing" textLength="175.1299" x="527" y="360.8857">merchant_id : UUID &#171;FK&#187;</text><ellipse cx="518" cy="373.8359" fill="#000000" rx="3" ry="3" style="stroke:#000000;stroke-width:1.0;"/><text fill="#000000" font-family="sans-serif" font-size="14" lengthAdjust="spacing" textLength="129.6436" x="527" y="377.1826">code : varchar(32)</text><ellipse cx="518" cy="390.1328" fill="#000000" rx="3" ry="3" style="stroke:#000000;stroke-width:1.0;"/><text fill="#000000" font-family="sans-serif" font-size="14" lengthAdjust="spacing" textLength="130.1494" x="527" y="393.4795">city : varchar(120)</text><ellipse cx="518" cy="406.4297" fill="#000000" rx="3" ry="3" style="stroke:#000000;stroke-width:1.0;"/><text fill="#000000" font-family="sans-serif" font-size="14" lengthAdjust="spacing" textLength="179.3477" x="527" y="409.7764">postal_code : varchar(12)</text><ellipse cx="518" cy="422.7266" fill="#000000" rx="3" ry="3" style="stroke:#000000;stroke-width:1.0;"/><text fill="#000000" font-family="sans-serif" font-size="14" lengthAdjust="spacing" textLength="96.8037" x="527" y="426.0732">address : text</text><ellipse cx="518" cy="439.0234" fill="#000000" rx="3" ry="3" style="stroke:#000000;stroke-width:1.0;"/><text fill="#000000" font-family="sans-serif" font-size="14" lengthAdjust="spacing" textLength="130.3271" x="527" y="442.3701">is_active : boolean</text></g><!--class carrier--><g id="elem_carrier"><rect codeLine="39" fill="#EAF2FB" height="123.7813" id="carrier" rx="2.5" ry="2.5" style="stroke:#2C6FB5;stroke-width:0.5;" width="306.1641" x="932.5" y="60.2969"/><text fill="#000000" font-family="sans-serif" font-size="14" lengthAdjust="spacing" textLength="46.0469" x="1062.5586" y="78.292">carrier</text><line style="stroke:#2C6FB5;stroke-width:0.5;" x1="933.5" x2="1237.6641" y1="86.5938" y2="86.5938"/><ellipse cx="943.5" cy="100.2422" fill="#000000" rx="3" ry="3" style="stroke:#000000;stroke-width:1.0;"/><text fill="#000000" font-family="sans-serif" font-size="14" lengthAdjust="spacing" textLength="101.001" x="952.5" y="103.5889">id : UUID &#171;PK&#187;</text><line style="stroke:#2C6FB5;stroke-width:1.0;" x1="933.5" x2="1237.6641" y1="110.8906" y2="110.8906"/><ellipse cx="943.5" cy="124.5391" fill="#000000" rx="3" ry="3" style="stroke:#000000;stroke-width:1.0;"/><text fill="#000000" font-family="sans-serif" font-size="14" lengthAdjust="spacing" textLength="280.1641" x="952.5" y="127.8857">code : varchar(32)   ' CDEK | BOXBERRY</text><ellipse cx="943.5" cy="140.8359" fill="#000000" rx="3" ry="3" style="stroke:#000000;stroke-width:1.0;"/><text fill="#000000" font-family="sans-serif" font-size="14" lengthAdjust="spacing" textLength="144.4912" x="952.5" y="144.1826">name : varchar(120)</text><ellipse cx="943.5" cy="157.1328" fill="#000000" rx="3" ry="3" style="stroke:#000000;stroke-width:1.0;"/><text fill="#000000" font-family="sans-serif" font-size="14" lengthAdjust="spacing" textLength="144.1152" x="952.5" y="160.4795">is_enabled : boolean</text><text fill="#000000" font-family="sans-serif" font-size="14" lengthAdjust="spacing" textLength="192.0352" x="952.5" y="176.7764">api_base_url : varchar(255)</text></g><!--class tariff--><g id="elem_tariff"><rect codeLine="48" fill="#EAF2FB" height="221.5625" id="tariff" rx="2.5" ry="2.5" style="stroke:#2C6FB5;stroke-width:0.5;" width="433.5654" x="1387.5" y="260.2969"/><text fill="#000000" font-family="sans-serif" font-size="14" lengthAdjust="spacing" textLength="33.5713" x="1587.4971" y="278.292">tariff</text><line style="stroke:#2C6FB5;stroke-width:0.5;" x1="1388.5" x2="1820.0654" y1="286.5938" y2="286.5938"/><ellipse cx="1398.5" cy="300.2422" fill="#000000" rx="3" ry="3" style="stroke:#000000;stroke-width:1.0;"/><text fill="#000000" font-family="sans-serif" font-size="14" lengthAdjust="spacing" textLength="101.001" x="1407.5" y="303.5889">id : UUID &#171;PK&#187;</text><line style="stroke:#2C6FB5;stroke-width:1.0;" x1="1388.5" x2="1820.0654" y1="310.8906" y2="310.8906"/><ellipse cx="1398.5" cy="324.5391" fill="#000000" rx="3" ry="3" style="stroke:#000000;stroke-width:1.0;"/><text fill="#000000" font-family="sans-serif" font-size="14" lengthAdjust="spacing" textLength="153.6582" x="1407.5" y="327.8857">carrier_id : UUID &#171;FK&#187;</text><ellipse cx="1398.5" cy="340.8359" fill="#000000" rx="3" ry="3" style="stroke:#000000;stroke-width:1.0;"/><text fill="#000000" font-family="sans-serif" font-size="14" lengthAdjust="spacing" textLength="407.5654" x="1407.5" y="344.1826">delivery_method : varchar(24)  ' PVZ|COURIER|POSTAMAT</text><ellipse cx="1398.5" cy="357.1328" fill="#000000" rx="3" ry="3" style="stroke:#000000;stroke-width:1.0;"/><text fill="#000000" font-family="sans-serif" font-size="14" lengthAdjust="spacing" textLength="169.1689" x="1407.5" y="360.4795">from_zone : varchar(32)</text><ellipse cx="1398.5" cy="373.4297" fill="#000000" rx="3" ry="3" style="stroke:#000000;stroke-width:1.0;"/><text fill="#000000" font-family="sans-serif" font-size="14" lengthAdjust="spacing" textLength="150.3359" x="1407.5" y="376.7764">to_zone : varchar(32)</text><ellipse cx="1398.5" cy="389.7266" fill="#000000" rx="3" ry="3" style="stroke:#000000;stroke-width:1.0;"/><text fill="#000000" font-family="sans-serif" font-size="14" lengthAdjust="spacing" textLength="182.4717" x="1407.5" y="393.0732">base_cost : numeric(12,2)</text><ellipse cx="1398.5" cy="406.0234" fill="#000000" rx="3" ry="3" style="stroke:#000000;stroke-width:1.0;"/><text fill="#000000" font-family="sans-serif" font-size="14" lengthAdjust="spacing" textLength="196.3486" x="1407.5" y="409.3701">cost_per_kg : numeric(12,2)</text><ellipse cx="1398.5" cy="422.3203" fill="#000000" rx="3" ry="3" style="stroke:#000000;stroke-width:1.0;"/><text fill="#000000" font-family="sans-serif" font-size="14" lengthAdjust="spacing" textLength="135.6045" x="1407.5" y="425.667">min_days : smallint</text><ellipse cx="1398.5" cy="438.6172" fill="#000000" rx="3" ry="3" style="stroke:#000000;stroke-width:1.0;"/><text fill="#000000" font-family="sans-serif" font-size="14" lengthAdjust="spacing" textLength="139.7061" x="1407.5" y="441.9639">max_days : smallint</text><ellipse cx="1398.5" cy="454.9141" fill="#000000" rx="3" ry="3" style="stroke:#000000;stroke-width:1.0;"/><text fill="#000000" font-family="sans-serif" font-size="14" lengthAdjust="spacing" textLength="175.3896" x="1407.5" y="458.2607">valid_from : timestamptz</text><ellipse cx="1398.5" cy="471.2109" fill="#000000" rx="3" ry="3" style="stroke:#000000;stroke-width:1.0;"/><text fill="#000000" font-family="sans-serif" font-size="14" lengthAdjust="spacing" textLength="156.5566" x="1407.5" y="474.5576">valid_to : timestamptz</text></g><!--class delivery_order--><g id="elem_delivery_order"><rect codeLine="63" fill="#EAF2FB" height="205.2656" id="delivery_order" rx="2.5" ry="2.5" style="stroke:#2C6FB5;stroke-width:0.5;" width="392.5293" x="7" y="268.7969"/><text fill="#000000" font-family="sans-serif" font-size="14" lengthAdjust="spacing" textLength="100.7959" x="152.8667" y="286.792">delivery_order</text><line style="stroke:#2C6FB5;stroke-width:0.5;" x1="8" x2="398.5293" y1="295.0938" y2="295.0938"/><ellipse cx="18" cy="308.7422" fill="#000000" rx="3" ry="3" style="stroke:#000000;stroke-width:1.0;"/><text fill="#000000" font-family="sans-serif" font-size="14" lengthAdjust="spacing" textLength="101.001" x="27" y="312.0889">id : UUID &#171;PK&#187;</text><line style="stroke:#2C6FB5;stroke-width:1.0;" x1="8" x2="398.5293" y1="319.3906" y2="319.3906"/><ellipse cx="18" cy="333.0391" fill="#000000" rx="3" ry="3" style="stroke:#000000;stroke-width:1.0;"/><text fill="#000000" font-family="sans-serif" font-size="14" lengthAdjust="spacing" textLength="366.5293" x="27" y="336.3857">external_order_id : varchar(64)  ' id &#1080;&#1079; order-service</text><ellipse cx="18" cy="349.3359" fill="#000000" rx="3" ry="3" style="stroke:#000000;stroke-width:1.0;"/><text fill="#000000" font-family="sans-serif" font-size="14" lengthAdjust="spacing" textLength="134.7227" x="27" y="352.6826">customer_id : UUID</text><ellipse cx="18" cy="365.6328" fill="#000000" rx="3" ry="3" style="stroke:#000000;stroke-width:1.0;"/><text fill="#000000" font-family="sans-serif" font-size="14" lengthAdjust="spacing" textLength="215.5918" x="27" y="368.9795">destination_city : varchar(120)</text><ellipse cx="18" cy="381.9297" fill="#000000" rx="3" ry="3" style="stroke:#000000;stroke-width:1.0;"/><text fill="#000000" font-family="sans-serif" font-size="14" lengthAdjust="spacing" textLength="224.0273" x="27" y="385.2764">destination_postal : varchar(12)</text><ellipse cx="18" cy="398.2266" fill="#000000" rx="3" ry="3" style="stroke:#000000;stroke-width:1.0;"/><text fill="#000000" font-family="sans-serif" font-size="14" lengthAdjust="spacing" textLength="182.2461" x="27" y="401.5732">destination_address : text</text><ellipse cx="18" cy="414.5234" fill="#000000" rx="3" ry="3" style="stroke:#000000;stroke-width:1.0;"/><text fill="#000000" font-family="sans-serif" font-size="14" lengthAdjust="spacing" textLength="181.1113" x="27" y="417.8701">total_cost : numeric(12,2)</text><ellipse cx="18" cy="430.8203" fill="#000000" rx="3" ry="3" style="stroke:#000000;stroke-width:1.0;"/><text fill="#000000" font-family="sans-serif" font-size="14" lengthAdjust="spacing" textLength="138.8994" x="27" y="434.167">status : varchar(32)</text><ellipse cx="18" cy="447.1172" fill="#000000" rx="3" ry="3" style="stroke:#000000;stroke-width:1.0;"/><text fill="#000000" font-family="sans-serif" font-size="14" lengthAdjust="spacing" textLength="219.3242" x="27" y="450.4639">idempotency_key : varchar(64)</text><ellipse cx="18" cy="463.4141" fill="#000000" rx="3" ry="3" style="stroke:#000000;stroke-width:1.0;"/><text fill="#000000" font-family="sans-serif" font-size="14" lengthAdjust="spacing" textLength="176.6748" x="27" y="466.7607">created_at : timestamptz</text></g><!--class shipment--><g id="elem_shipment"><rect codeLine="77" fill="#EAF2FB" height="270.4531" id="shipment" rx="2.5" ry="2.5" style="stroke:#2C6FB5;stroke-width:0.5;" width="272.3125" x="454.5" y="542.2969"/><text fill="#000000" font-family="sans-serif" font-size="14" lengthAdjust="spacing" textLength="65.5566" x="557.8779" y="560.292">shipment</text><line style="stroke:#2C6FB5;stroke-width:0.5;" x1="455.5" x2="725.8125" y1="568.5938" y2="568.5938"/><ellipse cx="465.5" cy="582.2422" fill="#000000" rx="3" ry="3" style="stroke:#000000;stroke-width:1.0;"/><text fill="#000000" font-family="sans-serif" font-size="14" lengthAdjust="spacing" textLength="101.001" x="474.5" y="585.5889">id : UUID &#171;PK&#187;</text><line style="stroke:#2C6FB5;stroke-width:1.0;" x1="455.5" x2="725.8125" y1="592.8906" y2="592.8906"/><ellipse cx="465.5" cy="606.5391" fill="#000000" rx="3" ry="3" style="stroke:#000000;stroke-width:1.0;"/><text fill="#000000" font-family="sans-serif" font-size="14" lengthAdjust="spacing" textLength="208.4072" x="474.5" y="609.8857">delivery_order_id : UUID &#171;FK&#187;</text><ellipse cx="465.5" cy="622.8359" fill="#000000" rx="3" ry="3" style="stroke:#000000;stroke-width:1.0;"/><text fill="#000000" font-family="sans-serif" font-size="14" lengthAdjust="spacing" textLength="175.1299" x="474.5" y="626.1826">merchant_id : UUID &#171;FK&#187;</text><ellipse cx="465.5" cy="639.1328" fill="#000000" rx="3" ry="3" style="stroke:#000000;stroke-width:1.0;"/><text fill="#000000" font-family="sans-serif" font-size="14" lengthAdjust="spacing" textLength="184.2285" x="474.5" y="642.4795">warehouse_id : UUID &#171;FK&#187;</text><ellipse cx="465.5" cy="655.4297" fill="#000000" rx="3" ry="3" style="stroke:#000000;stroke-width:1.0;"/><text fill="#000000" font-family="sans-serif" font-size="14" lengthAdjust="spacing" textLength="153.6582" x="474.5" y="658.7764">carrier_id : UUID &#171;FK&#187;</text><ellipse cx="465.5" cy="671.7266" fill="#000000" rx="3" ry="3" style="stroke:#000000;stroke-width:1.0;"/><text fill="#000000" font-family="sans-serif" font-size="14" lengthAdjust="spacing" textLength="141.1826" x="474.5" y="675.0732">tariff_id : UUID &#171;FK&#187;</text><ellipse cx="465.5" cy="688.0234" fill="#000000" rx="3" ry="3" style="stroke:#000000;stroke-width:1.0;"/><text fill="#000000" font-family="sans-serif" font-size="14" lengthAdjust="spacing" textLength="213.165" x="474.5" y="691.3701">delivery_method : varchar(24)</text><ellipse cx="465.5" cy="704.3203" fill="#000000" rx="3" ry="3" style="stroke:#000000;stroke-width:1.0;"/><text fill="#000000" font-family="sans-serif" font-size="14" lengthAdjust="spacing" textLength="214.7988" x="474.5" y="707.667">tracking_number : varchar(64)</text><ellipse cx="465.5" cy="720.6172" fill="#000000" rx="3" ry="3" style="stroke:#000000;stroke-width:1.0;"/><text fill="#000000" font-family="sans-serif" font-size="14" lengthAdjust="spacing" textLength="246.3125" x="474.5" y="723.9639">external_shipment_id : varchar(64)</text><ellipse cx="465.5" cy="736.9141" fill="#000000" rx="3" ry="3" style="stroke:#000000;stroke-width:1.0;"/><text fill="#000000" font-family="sans-serif" font-size="14" lengthAdjust="spacing" textLength="162.0938" x="474.5" y="740.2607">weight_grams : integer</text><ellipse cx="465.5" cy="753.2109" fill="#000000" rx="3" ry="3" style="stroke:#000000;stroke-width:1.0;"/><text fill="#000000" font-family="sans-serif" font-size="14" lengthAdjust="spacing" textLength="142.0986" x="474.5" y="756.5576">cost : numeric(12,2)</text><ellipse cx="465.5" cy="769.5078" fill="#000000" rx="3" ry="3" style="stroke:#000000;stroke-width:1.0;"/><text fill="#000000" font-family="sans-serif" font-size="14" lengthAdjust="spacing" textLength="138.8994" x="474.5" y="772.8545">status : varchar(32)</text><ellipse cx="465.5" cy="785.8047" fill="#000000" rx="3" ry="3" style="stroke:#000000;stroke-width:1.0;"/><text fill="#000000" font-family="sans-serif" font-size="14" lengthAdjust="spacing" textLength="176.6748" x="474.5" y="789.1514">created_at : timestamptz</text><ellipse cx="465.5" cy="802.1016" fill="#000000" rx="3" ry="3" style="stroke:#000000;stroke-width:1.0;"/><text fill="#000000" font-family="sans-serif" font-size="14" lengthAdjust="spacing" textLength="181.2549" x="474.5" y="805.4482">updated_at : timestamptz</text></g><!--class order_item--><g id="elem_order_item"><rect codeLine="95" fill="#EAF2FB" height="205.2656" id="order_item" rx="2.5" ry="2.5" style="stroke:#2C6FB5;stroke-width:0.5;" width="234.4072" x="86.5" y="574.7969"/><text fill="#000000" font-family="sans-serif" font-size="14" lengthAdjust="spacing" textLength="76.207" x="165.6001" y="592.792">order_item</text><line style="stroke:#2C6FB5;stroke-width:0.5;" x1="87.5" x2="319.9072" y1="601.0938" y2="601.0938"/><ellipse cx="97.5" cy="614.7422" fill="#000000" rx="3" ry="3" style="stroke:#000000;stroke-width:1.0;"/><text fill="#000000" font-family="sans-serif" font-size="14" lengthAdjust="spacing" textLength="101.001" x="106.5" y="618.0889">id : UUID &#171;PK&#187;</text><line style="stroke:#2C6FB5;stroke-width:1.0;" x1="87.5" x2="319.9072" y1="625.3906" y2="625.3906"/><ellipse cx="97.5" cy="639.0391" fill="#000000" rx="3" ry="3" style="stroke:#000000;stroke-width:1.0;"/><text fill="#000000" font-family="sans-serif" font-size="14" lengthAdjust="spacing" textLength="208.4072" x="106.5" y="642.3857">delivery_order_id : UUID &#171;FK&#187;</text><ellipse cx="97.5" cy="655.3359" fill="#000000" rx="3" ry="3" style="stroke:#000000;stroke-width:1.0;"/><text fill="#000000" font-family="sans-serif" font-size="14" lengthAdjust="spacing" textLength="175.1299" x="106.5" y="658.6826">merchant_id : UUID &#171;FK&#187;</text><ellipse cx="97.5" cy="671.6328" fill="#000000" rx="3" ry="3" style="stroke:#000000;stroke-width:1.0;"/><text fill="#000000" font-family="sans-serif" font-size="14" lengthAdjust="spacing" textLength="120.1553" x="106.5" y="674.9795">sku : varchar(64)</text><ellipse cx="97.5" cy="687.9297" fill="#000000" rx="3" ry="3" style="stroke:#000000;stroke-width:1.0;"/><text fill="#000000" font-family="sans-serif" font-size="14" lengthAdjust="spacing" textLength="132.1592" x="106.5" y="691.2764">title : varchar(255)</text><ellipse cx="97.5" cy="704.2266" fill="#000000" rx="3" ry="3" style="stroke:#000000;stroke-width:1.0;"/><text fill="#000000" font-family="sans-serif" font-size="14" lengthAdjust="spacing" textLength="122.1035" x="106.5" y="707.5732">quantity : integer</text><ellipse cx="97.5" cy="720.5234" fill="#000000" rx="3" ry="3" style="stroke:#000000;stroke-width:1.0;"/><text fill="#000000" font-family="sans-serif" font-size="14" lengthAdjust="spacing" textLength="162.0938" x="106.5" y="723.8701">weight_grams : integer</text><ellipse cx="97.5" cy="736.8203" fill="#000000" rx="3" ry="3" style="stroke:#000000;stroke-width:1.0;"/><text fill="#000000" font-family="sans-serif" font-size="14" lengthAdjust="spacing" textLength="142.6387" x="106.5" y="740.167">length_mm : integer</text><ellipse cx="97.5" cy="753.1172" fill="#000000" rx="3" ry="3" style="stroke:#000000;stroke-width:1.0;"/><text fill="#000000" font-family="sans-serif" font-size="14" lengthAdjust="spacing" textLength="136.6025" x="106.5" y="756.4639">width_mm : integer</text><ellipse cx="97.5" cy="769.4141" fill="#000000" rx="3" ry="3" style="stroke:#000000;stroke-width:1.0;"/><text fill="#000000" font-family="sans-serif" font-size="14" lengthAdjust="spacing" textLength="142.6387" x="106.5" y="772.7607">height_mm : integer</text></g><!--class shipment_item--><g id="elem_shipment_item"><rect codeLine="109" fill="#EAF2FB" height="91.1875" id="shipment_item" rx="2.5" ry="2.5" style="stroke:#2C6FB5;stroke-width:0.5;" width="249.0225" x="115" y="904.7969"/><text fill="#000000" font-family="sans-serif" font-size="14" lengthAdjust="spacing" textLength="104.1865" x="187.418" y="922.792">shipment_item</text><line style="stroke:#2C6FB5;stroke-width:0.5;" x1="116" x2="363.0225" y1="931.0938" y2="931.0938"/><ellipse cx="126" cy="944.7422" fill="#000000" rx="3" ry="3" style="stroke:#000000;stroke-width:1.0;"/><text fill="#000000" font-family="sans-serif" font-size="14" lengthAdjust="spacing" textLength="212.3721" x="135" y="948.0889">shipment_id : UUID &#171;PK&#187; &#171;FK&#187;</text><ellipse cx="126" cy="961.0391" fill="#000000" rx="3" ry="3" style="stroke:#000000;stroke-width:1.0;"/><text fill="#000000" font-family="sans-serif" font-size="14" lengthAdjust="spacing" textLength="223.0225" x="135" y="964.3857">order_item_id : UUID &#171;PK&#187; &#171;FK&#187;</text><line style="stroke:#2C6FB5;stroke-width:1.0;" x1="116" x2="363.0225" y1="971.6875" y2="971.6875"/><ellipse cx="126" cy="985.3359" fill="#000000" rx="3" ry="3" style="stroke:#000000;stroke-width:1.0;"/><text fill="#000000" font-family="sans-serif" font-size="14" lengthAdjust="spacing" textLength="122.1035" x="135" y="988.6826">quantity : integer</text></g><!--class ssh--><g id="elem_ssh"><rect codeLine="116" fill="#EAF2FB" height="156.375" id="ssh" rx="2.5" ry="2.5" style="stroke:#2C6FB5;stroke-width:0.5;" width="347.3027" x="417" y="872.2969"/><text fill="#000000" font-family="sans-serif" font-size="14" lengthAdjust="spacing" textLength="170.7275" x="505.2876" y="890.292">shipment_status_history</text><line style="stroke:#2C6FB5;stroke-width:0.5;" x1="418" x2="763.3027" y1="898.5938" y2="898.5938"/><ellipse cx="428" cy="912.2422" fill="#000000" rx="3" ry="3" style="stroke:#000000;stroke-width:1.0;"/><text fill="#000000" font-family="sans-serif" font-size="14" lengthAdjust="spacing" textLength="101.001" x="437" y="915.5889">id : UUID &#171;PK&#187;</text><line style="stroke:#2C6FB5;stroke-width:1.0;" x1="418" x2="763.3027" y1="922.8906" y2="922.8906"/><ellipse cx="428" cy="936.5391" fill="#000000" rx="3" ry="3" style="stroke:#000000;stroke-width:1.0;"/><text fill="#000000" font-family="sans-serif" font-size="14" lengthAdjust="spacing" textLength="173.168" x="437" y="939.8857">shipment_id : UUID &#171;FK&#187;</text><ellipse cx="428" cy="952.8359" fill="#000000" rx="3" ry="3" style="stroke:#000000;stroke-width:1.0;"/><text fill="#000000" font-family="sans-serif" font-size="14" lengthAdjust="spacing" textLength="178.7871" x="437" y="956.1826">from_status : varchar(32)</text><ellipse cx="428" cy="969.1328" fill="#000000" rx="3" ry="3" style="stroke:#000000;stroke-width:1.0;"/><text fill="#000000" font-family="sans-serif" font-size="14" lengthAdjust="spacing" textLength="159.9541" x="437" y="972.4795">to_status : varchar(32)</text><ellipse cx="428" cy="985.4297" fill="#000000" rx="3" ry="3" style="stroke:#000000;stroke-width:1.0;"/><text fill="#000000" font-family="sans-serif" font-size="14" lengthAdjust="spacing" textLength="321.3027" x="437" y="988.7764">source : varchar(24)  ' WEBHOOK|API|SYSTEM</text><ellipse cx="428" cy="1001.7266" fill="#000000" rx="3" ry="3" style="stroke:#000000;stroke-width:1.0;"/><text fill="#000000" font-family="sans-serif" font-size="14" lengthAdjust="spacing" textLength="208.5781" x="437" y="1005.0732">carrier_event_id : varchar(64)</text><ellipse cx="428" cy="1018.0234" fill="#000000" rx="3" ry="3" style="stroke:#000000;stroke-width:1.0;"/><text fill="#000000" font-family="sans-serif" font-size="14" lengthAdjust="spacing" textLength="183.4492" x="437" y="1021.3701">changed_at : timestamptz</text></g><!--class webhook_event--><g id="elem_webhook_event"><rect codeLine="127" fill="#EAF2FB" height="140.0781" id="webhook_event" rx="2.5" ry="2.5" style="stroke:#2C6FB5;stroke-width:0.5;" width="533.6367" x="818.5" y="301.2969"/><text fill="#000000" font-family="sans-serif" font-size="14" lengthAdjust="spacing" textLength="109.9355" x="1030.3506" y="319.292">webhook_event</text><line style="stroke:#2C6FB5;stroke-width:0.5;" x1="819.5" x2="1351.1367" y1="327.5938" y2="327.5938"/><ellipse cx="829.5" cy="341.2422" fill="#000000" rx="3" ry="3" style="stroke:#000000;stroke-width:1.0;"/><text fill="#000000" font-family="sans-serif" font-size="14" lengthAdjust="spacing" textLength="101.001" x="838.5" y="344.5889">id : UUID &#171;PK&#187;</text><line style="stroke:#2C6FB5;stroke-width:1.0;" x1="819.5" x2="1351.1367" y1="351.8906" y2="351.8906"/><ellipse cx="829.5" cy="365.5391" fill="#000000" rx="3" ry="3" style="stroke:#000000;stroke-width:1.0;"/><text fill="#000000" font-family="sans-serif" font-size="14" lengthAdjust="spacing" textLength="153.6582" x="838.5" y="368.8857">carrier_id : UUID &#171;FK&#187;</text><ellipse cx="829.5" cy="381.8359" fill="#000000" rx="3" ry="3" style="stroke:#000000;stroke-width:1.0;"/><text fill="#000000" font-family="sans-serif" font-size="14" lengthAdjust="spacing" textLength="507.6367" x="838.5" y="385.1826">external_event_id : varchar(64)  ' UNIQUE (carrier_id, external_event_id)</text><ellipse cx="829.5" cy="398.1328" fill="#000000" rx="3" ry="3" style="stroke:#000000;stroke-width:1.0;"/><text fill="#000000" font-family="sans-serif" font-size="14" lengthAdjust="spacing" textLength="106.7979" x="838.5" y="401.4795">payload : jsonb</text><ellipse cx="829.5" cy="414.4297" fill="#000000" rx="3" ry="3" style="stroke:#000000;stroke-width:1.0;"/><text fill="#000000" font-family="sans-serif" font-size="14" lengthAdjust="spacing" textLength="183.3945" x="838.5" y="417.7764">received_at : timestamptz</text><ellipse cx="829.5" cy="430.7266" fill="#000000" rx="3" ry="3" style="stroke:#000000;stroke-width:1.0;"/><text fill="#000000" font-family="sans-serif" font-size="14" lengthAdjust="spacing" textLength="141.1963" x="838.5" y="434.0732">processed : boolean</text></g><!--class outbox_event--><g id="elem_outbox_event"><rect codeLine="137" fill="#EAF2FB" height="156.375" id="outbox_event" rx="2.5" ry="2.5" style="stroke:#2C6FB5;stroke-width:0.5;" width="232.4453" x="1273.5" y="44.2969"/><text fill="#000000" font-family="sans-serif" font-size="14" lengthAdjust="spacing" textLength="95.5391" x="1341.9531" y="62.292">outbox_event</text><line style="stroke:#2C6FB5;stroke-width:0.5;" x1="1274.5" x2="1504.9453" y1="70.5938" y2="70.5938"/><ellipse cx="1284.5" cy="84.2422" fill="#000000" rx="3" ry="3" style="stroke:#000000;stroke-width:1.0;"/><text fill="#000000" font-family="sans-serif" font-size="14" lengthAdjust="spacing" textLength="101.001" x="1293.5" y="87.5889">id : UUID &#171;PK&#187;</text><line style="stroke:#2C6FB5;stroke-width:1.0;" x1="1274.5" x2="1504.9453" y1="94.8906" y2="94.8906"/><ellipse cx="1284.5" cy="108.5391" fill="#000000" rx="3" ry="3" style="stroke:#000000;stroke-width:1.0;"/><text fill="#000000" font-family="sans-serif" font-size="14" lengthAdjust="spacing" textLength="206.4453" x="1293.5" y="111.8857">aggregate_type : varchar(48)</text><ellipse cx="1284.5" cy="124.8359" fill="#000000" rx="3" ry="3" style="stroke:#000000;stroke-width:1.0;"/><text fill="#000000" font-family="sans-serif" font-size="14" lengthAdjust="spacing" textLength="141.0869" x="1293.5" y="128.1826">aggregate_id : UUID</text><ellipse cx="1284.5" cy="141.1328" fill="#000000" rx="3" ry="3" style="stroke:#000000;stroke-width:1.0;"/><text fill="#000000" font-family="sans-serif" font-size="14" lengthAdjust="spacing" textLength="174.0293" x="1293.5" y="144.4795">event_type : varchar(64)</text><ellipse cx="1284.5" cy="157.4297" fill="#000000" rx="3" ry="3" style="stroke:#000000;stroke-width:1.0;"/><text fill="#000000" font-family="sans-serif" font-size="14" lengthAdjust="spacing" textLength="106.7979" x="1293.5" y="160.7764">payload : jsonb</text><ellipse cx="1284.5" cy="173.7266" fill="#000000" rx="3" ry="3" style="stroke:#000000;stroke-width:1.0;"/><text fill="#000000" font-family="sans-serif" font-size="14" lengthAdjust="spacing" textLength="176.6748" x="1293.5" y="177.0732">created_at : timestamptz</text><ellipse cx="1284.5" cy="190.0234" fill="#000000" rx="3" ry="3" style="stroke:#000000;stroke-width:1.0;"/><text fill="#000000" font-family="sans-serif" font-size="14" lengthAdjust="spacing" textLength="191.1328" x="1293.5" y="193.3701">published_at : timestamptz</text></g><g id="elem_GMN26"><path d="M68,1088.2969 L68,1143.6953 A0,0 0 0 0 68,1143.6953 L411.2134,1143.6953 A0,0 0 0 0 411.2134,1143.6953 L411.2134,1098.2969 L401.2134,1088.2969 L243.5,1088.2969 L239.5,995.9569 L235.5,1088.2969 L68,1088.2969 A0,0 0 0 0 68,1088.2969 " fill="#FEFFDD" style="stroke:#181818;stroke-width:0.5;"/><path d="M401.2134,1088.2969 L401.2134,1098.2969 L411.2134,1098.2969 L401.2134,1088.2969 " fill="#FEFFDD" style="stroke:#181818;stroke-width:0.5;"/><text fill="#000000" font-family="sans-serif" font-size="13" lengthAdjust="spacing" textLength="245.2988" x="74" y="1105.3638">&#1040;&#1089;&#1089;&#1086;&#1094;&#1080;&#1072;&#1090;&#1080;&#1074;&#1085;&#1072;&#1103; &#1090;&#1072;&#1073;&#1083;&#1080;&#1094;&#1072;: &#1088;&#1077;&#1072;&#1083;&#1080;&#1079;&#1091;&#1077;&#1090;</text><text fill="#000000" font-family="sans-serif" font-size="13" lengthAdjust="spacing" textLength="269.4707" x="74" y="1120.4966">&#1089;&#1074;&#1103;&#1079;&#1100; M:N &#1084;&#1077;&#1078;&#1076;&#1091; shipment &#1080; order_item</text><text fill="#000000" font-family="sans-serif" font-size="13" lengthAdjust="spacing" textLength="322.2134" x="74" y="1135.6294">(&#1087;&#1086;&#1079;&#1080;&#1094;&#1080;&#1103; &#1084;&#1086;&#1078;&#1077;&#1090; &#1076;&#1077;&#1083;&#1080;&#1090;&#1100;&#1089;&#1103; &#1084;&#1077;&#1078;&#1076;&#1091; &#1086;&#1090;&#1075;&#1088;&#1091;&#1079;&#1082;&#1072;&#1084;&#1080;).</text></g><!--link merchant to warehouse--><g id="link_merchant_warehouse"><path codeLine="149" d="M531,192.4869 C531,225.3269 531,239.9669 531,274.9469 " fill="none" id="merchant-warehouse" style="stroke:#2C6FB5;stroke-width:1.0;"/><line style="stroke:#2C6FB5;stroke-width:1.0;" x1="527" x2="535" y1="188.4869" y2="188.4869"/><line style="stroke:#2C6FB5;stroke-width:1.0;" x1="527" x2="535" y1="191.4869" y2="191.4869"/><line style="stroke:#2C6FB5;stroke-width:1.0;" x1="531" x2="531" y1="192.4869" y2="184.4869"/><line style="stroke:#2C6FB5;stroke-width:1.0;" x1="531" x2="537" y1="284.9469" y2="292.9469"/><line style="stroke:#2C6FB5;stroke-width:1.0;" x1="531" x2="525" y1="284.9469" y2="292.9469"/><line style="stroke:#2C6FB5;stroke-width:1.0;" x1="531" x2="531" y1="284.9469" y2="292.9469"/><ellipse cx="531" cy="278.9469" fill="none" rx="4" ry="4" style="stroke:#2C6FB5;stroke-width:1.0;"/><text fill="#000000" font-family="sans-serif" font-size="13" lengthAdjust="spacing" textLength="84.4937" x="446" y="234.7838">1:M &#1074;&#1083;&#1072;&#1076;&#1077;&#1077;&#1090;</text></g><!--link merchant to shipment--><g id="link_merchant_shipment"><path codeLine="150" d="M480.75,192.3469 C480.75,278.4069 480.75,410.2569 480.75,524.1869 " fill="none" id="merchant-shipment" style="stroke:#2C6FB5;stroke-width:1.0;"/><line style="stroke:#2C6FB5;stroke-width:1.0;" x1="476.75" x2="484.75" y1="188.3469" y2="188.3469"/><line style="stroke:#2C6FB5;stroke-width:1.0;" x1="476.75" x2="484.75" y1="191.3469" y2="191.3469"/><line style="stroke:#2C6FB5;stroke-width:1.0;" x1="480.75" x2="480.75" y1="192.3469" y2="184.3469"/><line style="stroke:#2C6FB5;stroke-width:1.0;" x1="480.75" x2="486.75" y1="534.1869" y2="542.1869"/><line style="stroke:#2C6FB5;stroke-width:1.0;" x1="480.75" x2="474.75" y1="534.1869" y2="542.1869"/><line style="stroke:#2C6FB5;stroke-width:1.0;" x1="480.75" x2="480.75" y1="534.1869" y2="542.1869"/><ellipse cx="480.75" cy="528.1869" fill="none" rx="4" ry="4" style="stroke:#2C6FB5;stroke-width:1.0;"/><text fill="#000000" font-family="sans-serif" font-size="13" lengthAdjust="spacing" textLength="101.5498" x="404.5" y="376.3338">1:M &#1086;&#1090;&#1075;&#1088;&#1091;&#1078;&#1072;&#1077;&#1090;</text></g><!--link merchant to order_item--><g id="link_merchant_order_item"><path codeLine="151" d="M405.5,192.3469 C405.5,337.1769 405.5,677.2969 405.5,677.2969 C405.5,677.2969 383.27,677.2969 338.71,677.2969 " fill="none" id="merchant-order_item" style="stroke:#2C6FB5;stroke-width:1.0;"/><line style="stroke:#2C6FB5;stroke-width:1.0;" x1="401.5" x2="409.5" y1="188.3469" y2="188.3469"/><line style="stroke:#2C6FB5;stroke-width:1.0;" x1="401.5" x2="409.5" y1="191.3469" y2="191.3469"/><line style="stroke:#2C6FB5;stroke-width:1.0;" x1="405.5" x2="405.5" y1="192.3469" y2="184.3469"/><line style="stroke:#2C6FB5;stroke-width:1.0;" x1="328.71" x2="320.71" y1="677.2969" y2="683.2969"/><line style="stroke:#2C6FB5;stroke-width:1.0;" x1="328.71" x2="320.71" y1="677.2969" y2="671.2969"/><line style="stroke:#2C6FB5;stroke-width:1.0;" x1="328.71" x2="320.71" y1="677.2969" y2="677.2969"/><ellipse cx="334.71" cy="677.2969" fill="none" rx="4" ry="4" style="stroke:#2C6FB5;stroke-width:1.0;"/><text fill="#000000" font-family="sans-serif" font-size="13" lengthAdjust="spacing" textLength="85.23" x="406.5" y="469.2838">1:M &#1087;&#1088;&#1086;&#1076;&#1072;&#1105;&#1090;</text></g><!--link carrier to tariff--><g id="link_carrier_tariff"><path codeLine="152" d="M1136.5,192.6069 C1136.5,231.1369 1136.5,265.2969 1136.5,265.2969 C1136.5,265.2969 1246.97,265.2969 1369.28,265.2969 " fill="none" id="carrier-tariff" style="stroke:#2C6FB5;stroke-width:1.0;"/><line style="stroke:#2C6FB5;stroke-width:1.0;" x1="1132.5" x2="1140.5" y1="188.6069" y2="188.6069"/><line style="stroke:#2C6FB5;stroke-width:1.0;" x1="1132.5" x2="1140.5" y1="191.6069" y2="191.6069"/><line style="stroke:#2C6FB5;stroke-width:1.0;" x1="1136.5" x2="1136.5" y1="192.6069" y2="184.6069"/><line style="stroke:#2C6FB5;stroke-width:1.0;" x1="1379.28" x2="1387.28" y1="265.2969" y2="259.2969"/><line style="stroke:#2C6FB5;stroke-width:1.0;" x1="1379.28" x2="1387.28" y1="265.2969" y2="271.2969"/><line style="stroke:#2C6FB5;stroke-width:1.0;" x1="1379.28" x2="1387.28" y1="265.2969" y2="265.2969"/><ellipse cx="1373.28" cy="265.2969" fill="none" rx="4" ry="4" style="stroke:#2C6FB5;stroke-width:1.0;"/><text fill="#000000" font-family="sans-serif" font-size="13" lengthAdjust="spacing" textLength="69.8242" x="1151.54" y="261.3638">1:M &#1080;&#1084;&#1077;&#1077;&#1090;</text></g><!--link carrier to shipment--><g id="link_carrier_shipment"><path codeLine="153" d="M924.35,122.2969 C823.06,122.2969 716.83,122.2969 716.83,122.2969 C716.83,122.2969 716.83,359.9569 716.83,524.2369 " fill="none" id="carrier-shipment" style="stroke:#2C6FB5;stroke-width:1.0;"/><line style="stroke:#2C6FB5;stroke-width:1.0;" x1="928.35" x2="928.35" y1="118.2969" y2="126.2969"/><line style="stroke:#2C6FB5;stroke-width:1.0;" x1="925.35" x2="925.35" y1="118.2969" y2="126.2969"/><line style="stroke:#2C6FB5;stroke-width:1.0;" x1="924.35" x2="932.35" y1="122.2969" y2="122.2969"/><line style="stroke:#2C6FB5;stroke-width:1.0;" x1="716.83" x2="722.83" y1="534.2369" y2="542.2369"/><line style="stroke:#2C6FB5;stroke-width:1.0;" x1="716.83" x2="710.83" y1="534.2369" y2="542.2369"/><line style="stroke:#2C6FB5;stroke-width:1.0;" x1="716.83" x2="716.83" y1="534.2369" y2="542.2369"/><ellipse cx="716.83" cy="528.2369" fill="none" rx="4" ry="4" style="stroke:#2C6FB5;stroke-width:1.0;"/><text fill="#000000" font-family="sans-serif" font-size="13" lengthAdjust="spacing" textLength="118.479" x="597.83" y="220.5738">1:M &#1086;&#1073;&#1089;&#1083;&#1091;&#1078;&#1080;&#1074;&#1072;&#1077;&#1090;</text></g><!--link carrier to webhook_event--><g id="link_carrier_webhook_event"><path codeLine="154" d="M1034.5,192.4869 C1034.5,227.9269 1034.5,246.4369 1034.5,283.1169 " fill="none" id="carrier-webhook_event" style="stroke:#2C6FB5;stroke-width:1.0;"/><line style="stroke:#2C6FB5;stroke-width:1.0;" x1="1030.5" x2="1038.5" y1="188.4869" y2="188.4869"/><line style="stroke:#2C6FB5;stroke-width:1.0;" x1="1030.5" x2="1038.5" y1="191.4869" y2="191.4869"/><line style="stroke:#2C6FB5;stroke-width:1.0;" x1="1034.5" x2="1034.5" y1="192.4869" y2="184.4869"/><line style="stroke:#2C6FB5;stroke-width:1.0;" x1="1034.5" x2="1040.5" y1="293.1169" y2="301.1169"/><line style="stroke:#2C6FB5;stroke-width:1.0;" x1="1034.5" x2="1028.5" y1="293.1169" y2="301.1169"/><line style="stroke:#2C6FB5;stroke-width:1.0;" x1="1034.5" x2="1034.5" y1="293.1169" y2="301.1169"/><ellipse cx="1034.5" cy="287.1169" fill="none" rx="4" ry="4" style="stroke:#2C6FB5;stroke-width:1.0;"/><text fill="#000000" font-family="sans-serif" font-size="13" lengthAdjust="spacing" textLength="63.7749" x="970.5" y="238.8638">1:M &#1096;&#1083;&#1105;&#1090;</text></g><!--link tariff to shipment--><g id="link_tariff_shipment"><path codeLine="155" d="M1379.4,478.2969 C1118.01,478.2969 721.67,478.2969 721.67,478.2969 C721.67,478.2969 721.67,488.7169 721.67,524.0869 " fill="none" id="tariff-shipment" style="stroke:#2C6FB5;stroke-width:1.0;"/><line style="stroke:#2C6FB5;stroke-width:1.0;" x1="1383.4" x2="1383.4" y1="474.2969" y2="482.2969"/><line style="stroke:#2C6FB5;stroke-width:1.0;" x1="1380.4" x2="1380.4" y1="474.2969" y2="482.2969"/><line style="stroke:#2C6FB5;stroke-width:1.0;" x1="1379.4" x2="1387.4" y1="478.2969" y2="478.2969"/><line style="stroke:#2C6FB5;stroke-width:1.0;" x1="721.67" x2="727.67" y1="534.0869" y2="542.0869"/><line style="stroke:#2C6FB5;stroke-width:1.0;" x1="721.67" x2="715.67" y1="534.0869" y2="542.0869"/><line style="stroke:#2C6FB5;stroke-width:1.0;" x1="721.67" x2="721.67" y1="534.0869" y2="542.0869"/><ellipse cx="721.67" cy="528.0869" fill="none" rx="4" ry="4" style="stroke:#2C6FB5;stroke-width:1.0;"/><text fill="#000000" font-family="sans-serif" font-size="13" lengthAdjust="spacing" textLength="107.9863" x="914.64" y="474.3638">1:M &#1087;&#1088;&#1080;&#1084;&#1077;&#1085;&#1105;&#1085; &#1082;</text></g><!--link warehouse to shipment--><g id="link_warehouse_shipment"><path codeLine="156" d="M609.5,457.3069 C609.5,485.5469 609.5,492.3169 609.5,524.0569 " fill="none" id="warehouse-shipment" style="stroke:#2C6FB5;stroke-width:1.0;"/><line style="stroke:#2C6FB5;stroke-width:1.0;" x1="605.5" x2="613.5" y1="453.3069" y2="453.3069"/><line style="stroke:#2C6FB5;stroke-width:1.0;" x1="605.5" x2="613.5" y1="456.3069" y2="456.3069"/><line style="stroke:#2C6FB5;stroke-width:1.0;" x1="609.5" x2="609.5" y1="457.3069" y2="449.3069"/><line style="stroke:#2C6FB5;stroke-width:1.0;" x1="609.5" x2="615.5" y1="534.0569" y2="542.0569"/><line style="stroke:#2C6FB5;stroke-width:1.0;" x1="609.5" x2="603.5" y1="534.0569" y2="542.0569"/><line style="stroke:#2C6FB5;stroke-width:1.0;" x1="609.5" x2="609.5" y1="534.0569" y2="542.0569"/><ellipse cx="609.5" cy="528.0569" fill="none" rx="4" ry="4" style="stroke:#2C6FB5;stroke-width:1.0;"/><text fill="#000000" font-family="sans-serif" font-size="13" lengthAdjust="spacing" textLength="135.751" x="473.5" y="491.7538">1:M &#1086;&#1090;&#1075;&#1088;&#1091;&#1078;&#1072;&#1077;&#1090;&#1089;&#1103; &#1089;&#1086;</text></g><!--link delivery_order to shipment--><g id="link_delivery_order_shipment"><path codeLine="157" d="M382,481.8269 C382,525.8169 382,559.2969 382,559.2969 C382,559.2969 406.78,559.2969 446.34,559.2969 " fill="none" id="delivery_order-shipment" style="stroke:#2C6FB5;stroke-width:1.0;"/><line style="stroke:#2C6FB5;stroke-width:1.0;" x1="378" x2="386" y1="477.8269" y2="477.8269"/><line style="stroke:#2C6FB5;stroke-width:1.0;" x1="378" x2="386" y1="480.8269" y2="480.8269"/><line style="stroke:#2C6FB5;stroke-width:1.0;" x1="382" x2="382" y1="481.8269" y2="473.8269"/><line style="stroke:#2C6FB5;stroke-width:1.0;" x1="446.34" x2="454.34" y1="559.2969" y2="553.2969"/><line style="stroke:#2C6FB5;stroke-width:1.0;" x1="446.34" x2="454.34" y1="559.2969" y2="565.2969"/><line style="stroke:#2C6FB5;stroke-width:1.0;" x1="446.34" x2="454.34" y1="559.2969" y2="559.2969"/><line style="stroke:#2C6FB5;stroke-width:1.0;" x1="444.34" x2="444.34" y1="555.2969" y2="563.2969"/><text fill="#000000" font-family="sans-serif" font-size="13" lengthAdjust="spacing" textLength="95.7671" x="286" y="548.7938">1:M &#1088;&#1072;&#1079;&#1073;&#1080;&#1090; &#1085;&#1072;</text></g><!--link delivery_order to order_item--><g id="link_delivery_order_order_item"><path codeLine="158" d="M203.5,482.0369 C203.5,514.4269 203.5,534.1869 203.5,566.5669 " fill="none" id="delivery_order-order_item" style="stroke:#2C6FB5;stroke-width:1.0;"/><line style="stroke:#2C6FB5;stroke-width:1.0;" x1="199.5" x2="207.5" y1="478.0369" y2="478.0369"/><line style="stroke:#2C6FB5;stroke-width:1.0;" x1="199.5" x2="207.5" y1="481.0369" y2="481.0369"/><line style="stroke:#2C6FB5;stroke-width:1.0;" x1="203.5" x2="203.5" y1="482.0369" y2="474.0369"/><line style="stroke:#2C6FB5;stroke-width:1.0;" x1="203.5" x2="209.5" y1="566.5669" y2="574.5669"/><line style="stroke:#2C6FB5;stroke-width:1.0;" x1="203.5" x2="197.5" y1="566.5669" y2="574.5669"/><line style="stroke:#2C6FB5;stroke-width:1.0;" x1="203.5" x2="203.5" y1="566.5669" y2="574.5669"/><line style="stroke:#2C6FB5;stroke-width:1.0;" x1="207.5" x2="199.5" y1="564.5669" y2="564.5669"/><text fill="#000000" font-family="sans-serif" font-size="13" lengthAdjust="spacing" textLength="96.0718" x="106.5" y="520.3738">1:M &#1089;&#1086;&#1076;&#1077;&#1088;&#1078;&#1080;&#1090;</text></g><!--link shipment to shipment_item--><g id="link_shipment_shipment_item"><path codeLine="159" d="M446.39,796.2969 C388.57,796.2969 342.25,796.2969 342.25,796.2969 C342.25,796.2969 342.25,841.1169 342.25,886.5069 " fill="none" id="shipment-shipment_item" style="stroke:#2C6FB5;stroke-width:1.0;"/><line style="stroke:#2C6FB5;stroke-width:1.0;" x1="450.39" x2="450.39" y1="792.2969" y2="800.2969"/><line style="stroke:#2C6FB5;stroke-width:1.0;" x1="447.39" x2="447.39" y1="792.2969" y2="800.2969"/><line style="stroke:#2C6FB5;stroke-width:1.0;" x1="446.39" x2="454.39" y1="796.2969" y2="796.2969"/><line style="stroke:#2C6FB5;stroke-width:1.0;" x1="342.25" x2="348.25" y1="896.5069" y2="904.5069"/><line style="stroke:#2C6FB5;stroke-width:1.0;" x1="342.25" x2="336.25" y1="896.5069" y2="904.5069"/><line style="stroke:#2C6FB5;stroke-width:1.0;" x1="342.25" x2="342.25" y1="896.5069" y2="904.5069"/><ellipse cx="342.25" cy="890.5069" fill="none" rx="4" ry="4" style="stroke:#2C6FB5;stroke-width:1.0;"/><text fill="#000000" font-family="sans-serif" font-size="13" lengthAdjust="spacing" textLength="93.9834" x="250.21" y="809.3638">1:M &#1074;&#1082;&#1083;&#1102;&#1095;&#1072;&#1077;&#1090;</text></g><!--link order_item to shipment_item--><g id="link_order_item_shipment_item"><path codeLine="160" d="M217.75,788.1169 C217.75,831.0469 217.75,852.7069 217.75,886.6469 " fill="none" id="order_item-shipment_item" style="stroke:#2C6FB5;stroke-width:1.0;"/><line style="stroke:#2C6FB5;stroke-width:1.0;" x1="213.75" x2="221.75" y1="784.1169" y2="784.1169"/><line style="stroke:#2C6FB5;stroke-width:1.0;" x1="213.75" x2="221.75" y1="787.1169" y2="787.1169"/><line style="stroke:#2C6FB5;stroke-width:1.0;" x1="217.75" x2="217.75" y1="788.1169" y2="780.1169"/><line style="stroke:#2C6FB5;stroke-width:1.0;" x1="217.75" x2="223.75" y1="896.6469" y2="904.6469"/><line style="stroke:#2C6FB5;stroke-width:1.0;" x1="217.75" x2="211.75" y1="896.6469" y2="904.6469"/><line style="stroke:#2C6FB5;stroke-width:1.0;" x1="217.75" x2="217.75" y1="896.6469" y2="904.6469"/><ellipse cx="217.75" cy="890.6469" fill="none" rx="4" ry="4" style="stroke:#2C6FB5;stroke-width:1.0;"/><text fill="#000000" font-family="sans-serif" font-size="13" lengthAdjust="spacing" textLength="117.9077" x="99.75" y="838.4538">1:M &#1088;&#1072;&#1089;&#1087;&#1088;&#1077;&#1076;&#1077;&#1083;&#1105;&#1085;</text></g><!--link shipment to ssh--><g id="link_shipment_ssh"><path codeLine="161" d="M590.5,820.5969 C590.5,840.9769 590.5,835.3969 590.5,854.0269 " fill="none" id="shipment-ssh" style="stroke:#2C6FB5;stroke-width:1.0;"/><line style="stroke:#2C6FB5;stroke-width:1.0;" x1="586.5" x2="594.5" y1="816.5969" y2="816.5969"/><line style="stroke:#2C6FB5;stroke-width:1.0;" x1="586.5" x2="594.5" y1="819.5969" y2="819.5969"/><line style="stroke:#2C6FB5;stroke-width:1.0;" x1="590.5" x2="590.5" y1="820.5969" y2="812.5969"/><line style="stroke:#2C6FB5;stroke-width:1.0;" x1="590.5" x2="596.5" y1="864.0269" y2="872.0269"/><line style="stroke:#2C6FB5;stroke-width:1.0;" x1="590.5" x2="584.5" y1="864.0269" y2="872.0269"/><line style="stroke:#2C6FB5;stroke-width:1.0;" x1="590.5" x2="590.5" y1="864.0269" y2="872.0269"/><ellipse cx="590.5" cy="858.0269" fill="none" rx="4" ry="4" style="stroke:#2C6FB5;stroke-width:1.0;"/><text fill="#000000" font-family="sans-serif" font-size="13" lengthAdjust="spacing" textLength="83.6431" x="506.5" y="838.3738">1:M &#1080;&#1089;&#1090;&#1086;&#1088;&#1080;&#1103;</text></g><!--SRC=[lLZTJjn65BxtKnnjBu0AeeOcKONIIFmiAg840g5jUcFDsiEkY-tPZ6SXcsmbGjIaKgFGIBcgr7VOfE6deS0hZ5-XJz8pCzvTszYxIHlLGeizvyoPxvpldFaRWoy_ncED0LJNf-HVybo-bOVoD7uEygLy1GlKztOeRyCgTneq4fm8ZuMmGVcEvr0ONsEHg7EwSUThk7fZuego8t-Nv_6-xCPFvKbyC0CEPxjZ4Mmn9gx0sZBylVSAv8KyZFVa6zHu9i_YN-IV8D_Xg2_YPvEmcEYyaMUezJF-dgJaPepVqFuUGZr1QLV1nV_dyUDuNm6_q5vSeF77A4G5q3_uzIO-aCVnGVmJZ5-TMPc4bPdRW0WKbaDv36ZqCMgTA-Zule-_229-4hzGWogdv6jvYdQVnayWQdZDW8R2zWGDjEiVXmhX2PyY6miw2kzFm8HbHTjUs2IS150ZpdQTirRepZEVSVXaKJyfZQX1NBRhXNNO8dv4hORdKd0yxlWqfULx8HNj9WN6HOEb18vFeWWUMG1p-Q6giulJYtDAmhXBUT8wFNzZSUuwjivoJ8Xiuu-MXO7qH1ig0KK_IIWgG2BeVUXnFWNFXHdOt5nQW9itrvPltSB6gIaj2Kb0KRP3b3uVdxv-VKAt-xHEVDiBmvJmwhIHHOA8LfGIV9u874w9eAvD10g55s3KIT0K3zCmTmcd3TQAgCRP_ne9jEUHdLPPD2euCdDf4I0rPDg1pqnx4xb7ztAzUluHr-KqKWuA-a0ON95D787vX8qrndnAmhHJ3k7SeroxbBoFTEWoP00OW_c5wZ9qO6xrkxdg-lgz8fBwRY0g6fAQJzqKB03IzEmQYQZTudwUsnHeGRYtjQKnczVHa8rhnHIuIRtP0SM4TzC3NvjGdgrzytrdVdLpVQcwtbbRtRWxkp9xL_VSuYom7xAmY471oYJQGmU9H5dOmlJm78pCP8zv5DXDnBfTBvG7NcYxfAr8ZWBYOxKQeWFoeB1zX_YUQokakTGU20Khp_f-S7HXwvXdcqR67ZEHyX2JLgiR2deXkM42Z6quxnw3rfYAp4Hdej6A10lIp2MKHS8BzRnebvLAMiUKJK75f9KAgaSmKsqbN9NE9pYn1aqcQEYqxMtQpdhytZDERxdHKUzzZ8ntbfxYb1y-9_Ndjf8fQrWncOBy5uLcUdDSMN21iZ7MDSojot7hPzDWBNOBr7QfLsy8kuxhbk87Yu7MAUyNs8UnMSgL4hQQxaWY4oPmqw2f77p-3sH6sws2-9WTHy7oURz53EXiq8R4qwTXNJJi8CXtyToYveQnb6aloFb1j38jIS2ovASYb_Py4EOXQacS2zmk0cLIn6vuE2lnje4NDKQoM0YtZrEl8gN9X-j8gInYBUxGomlMjzMvhrPNbpkpQqkTZNiRTwihcSAbEwLrenAfFceZH6iDnhQD6RCPIhVyjyMuNz_589LtcxUNxcnMONnWP_9ojsIxHDe-8yh63n4BQxgDKuTYJPMKSvCp1nU1pCOaNSajKMCFKgwd6qPwJkguRw_ZT67h3VR0isjVJEGKikkTyIhNgSTPaPD3fwncg-PxKQE4vZ54cppzyvCy0VNtRiWHhD_9wc_XpTFfJ4snHwaDS_BCG0KFPEhCTuh6r17qCDwlbFJkhtwGxwuEdd_4U_4JUOHcXfX8pRev4nVeb3e-TkENgdjl7vpjdkmquJA24pn39-2Bkmu1BrzZY4yrU7Nmx0upawsob1ayC9yQw3cG8yTNdXluP_5BUOOCLwmSKHzE02R4WSgSyugLsoegMvqXjX1D5vFjDHwtz_K1lin2APTgM9LBQEb8MQbOkS5oxWni3D8nkNNeaP4RQvG1vGEYkD3t2-PY1IDRYWDNZ-pJpofLLnZSFNMbKh6i4BUJE2C9t0u3sygEZrKjVoswny2tWymbXkpEW4RMLT_o65b39x5__wRakRuXqJbn9D-cBZtK33281NOPrxSknzeiOWHzbNIax85nN14GFzVfaBANIfXZDQEWw6JY2iwmBYWVhNy0]--></g></svg>